<svg width="236" height="54" viewBox="0 0 236 54" fill="none" xmlns="http://www.w3.org/2000/svg">
<path d="M33.489 27.9674C33.489 28.4552 33.1228 28.7539 32.3983 28.8643C31.3714 29.0214 30.7739 29.124 30.5989 29.1864C30.0414 29.4227 29.7627 29.8631 29.7627 30.5313V37.7677C29.7627 38.68 28.5687 39.6471 26.1797 40.6777C23.4888 41.8337 20.4706 42.4078 17.1189 42.4078C12.2461 42.4078 8.18512 40.9687 4.93671 38.0976C1.64821 35.1798 0 31.436 0 26.8745C0 22.2182 1.70354 18.3484 5.10371 15.2578C8.39221 12.2764 12.3572 10.7899 16.9835 10.7899C20.5343 10.7899 23.5604 11.2147 26.0442 12.0563C27.8759 12.6699 28.8311 13.2914 28.9106 13.9045C29.0619 15.0689 29.142 16.7989 29.142 19.0881C29.142 19.5992 28.8232 19.8667 28.1783 19.8979C27.4301 19.9297 26.9758 19.7173 26.8009 19.2764C25.9489 16.9879 24.7465 15.3364 23.2022 14.3292C21.6572 13.3226 19.539 12.8193 16.8402 12.8193C13.1138 12.8193 10.2074 13.9519 8.10554 16.2092C5.94782 18.553 4.87296 21.9195 4.87296 26.3004C4.87296 30.5236 6.11482 33.9213 8.5993 36.5091C11.0035 39.0262 14.0929 40.2842 17.8829 40.2842C19.8257 40.2842 21.6335 39.938 23.3054 39.2464C24.9056 38.5853 25.7023 37.917 25.7023 37.2404V32.427C25.7023 31.2866 25.471 30.4606 25.0015 29.9495C24.6032 29.4857 23.807 29.0766 22.6125 28.7227C21.7289 28.463 21.3068 28.1486 21.3548 27.7791C21.4185 27.3856 21.5218 27.142 21.673 27.0473C21.8163 26.953 22.191 26.9453 22.7959 27.0238C26.1081 27.4329 29.3169 27.4641 32.4384 27.1181C32.6133 27.1024 32.7487 27.0946 32.8599 27.0946C33.2819 27.0946 33.489 27.3856 33.489 27.9674ZM52.0174 25.4035C52.0174 27.2674 51.4757 28.2038 50.385 28.2038C50.2101 28.2038 49.6448 28.0935 48.681 27.8733C47.7178 27.6531 47.0091 27.5428 46.5554 27.5428C44.8113 27.5428 43.9435 28.6993 43.9435 31.0191V37.8067C43.9435 38.6015 44.2223 39.1678 44.7876 39.5055C45.1138 39.7101 45.9342 39.9776 47.2399 40.316C47.9407 40.4809 48.291 40.7485 48.291 41.1024C48.291 41.5193 48.2352 41.7707 48.1156 41.8576C47.9965 41.9441 47.7099 41.9596 47.2399 41.9201C43.8239 41.5823 41.1172 41.5661 39.1344 41.8811C38.5131 41.9753 38.1154 41.9753 37.9399 41.8654C37.8045 41.7707 37.7328 41.5037 37.7328 41.055C37.7328 40.6382 38.1627 40.3003 39.0226 40.0562C39.8826 39.8127 40.3125 39.0809 40.3125 37.8541V30.4768C40.3125 29.5092 40.1856 28.8565 39.9305 28.5181C39.6676 28.1876 38.9674 27.7317 37.8124 27.1654L37.6774 27.0946C37.3666 26.9375 37.2074 26.7251 37.2074 26.442C37.2074 26.1349 37.5257 25.8756 38.1627 25.6555C39.2297 25.2854 40.2093 24.7665 41.0929 24.0982C41.8174 23.532 42.2874 23.2488 42.4866 23.2488C43.052 23.2488 43.386 23.7281 43.4978 24.6801C43.6411 25.8991 43.8002 26.505 43.9914 26.505C44.0073 26.505 44.8751 25.9225 46.6028 24.7665C47.7415 24.0035 48.9834 23.6261 50.3371 23.6261C51.46 23.6261 52.0174 24.2158 52.0174 25.4035ZM72.5117 37.8853C72.5117 38.5463 71.6122 39.364 69.8049 40.3472C67.7505 41.4408 65.6407 41.9831 63.4746 41.9831C61.1256 41.9831 59.1512 41.2206 57.551 39.7023C55.8391 38.0898 54.9791 35.9351 54.9791 33.253C54.9791 30.2092 55.9345 27.763 57.8455 25.9225C59.6371 24.2002 61.8343 23.343 64.4304 23.343C65.9669 23.343 67.4079 23.8307 68.7458 24.7978C69.9403 25.6555 70.7365 26.6382 71.1264 27.7473C71.2697 28.133 71.4768 28.3454 71.7635 28.3922C72.1697 28.4708 72.3683 28.7461 72.3683 29.2104C72.3683 29.8475 71.6043 30.3981 70.0752 30.8463L59.3262 33.9609C60.027 37.6105 61.9302 39.4347 65.0274 39.4347C66.8189 39.4347 68.857 38.7977 71.1501 37.5157C71.4926 37.319 71.8272 37.217 72.1533 37.217C72.3926 37.217 72.5117 37.4371 72.5117 37.8853ZM66.9701 28.6597C66.9701 27.8103 66.6276 27.0628 65.9352 26.4258C65.2424 25.7887 64.3904 25.4666 63.3792 25.4666C60.5207 25.4666 59.0875 27.4876 59.0875 31.5385V32.0886L65.4336 30.2566C66.4606 29.9572 66.9701 29.4306 66.9701 28.6597ZM93.2931 37.8853C93.2931 38.5463 92.3937 39.364 90.5864 40.3472C88.5319 41.4408 86.4222 41.9831 84.256 41.9831C81.9071 41.9831 79.9327 41.2206 78.3325 39.7023C76.6205 38.0898 75.7606 35.9351 75.7606 33.253C75.7606 30.2092 76.7159 27.763 78.627 25.9225C80.4185 24.2002 82.6157 23.343 85.2118 23.343C86.7483 23.343 88.1894 23.8307 89.5273 24.7978C90.7218 25.6555 91.518 26.6382 91.9078 27.7473C92.0511 28.133 92.2582 28.3454 92.5449 28.3922C92.9512 28.4708 93.1497 28.7461 93.1497 29.2104C93.1497 29.8475 92.3857 30.3981 90.8566 30.8463L80.1076 33.9609C80.8084 37.6105 82.7117 39.4347 85.8088 39.4347C87.6004 39.4347 89.6384 38.7977 91.9316 37.5157C92.2741 37.319 92.6087 37.217 92.9348 37.217C93.174 37.217 93.2931 37.4371 93.2931 37.8853ZM87.7515 28.6597C87.7515 27.8103 87.409 27.0628 86.7167 26.4258C86.0238 25.7887 85.1718 25.4666 84.1606 25.4666C81.3021 25.4666 79.8689 27.4876 79.8689 31.5385V32.0886L86.2151 30.2566C87.242 29.9572 87.7515 29.4306 87.7515 28.6597ZM121.241 41.3304C121.241 41.8103 120.891 42.0304 120.19 41.9831C116.853 41.8103 114.33 41.7785 112.602 41.8888C111.718 41.9518 111.24 41.8415 111.161 41.5661C111.129 41.472 111.113 41.3382 111.113 41.1654C111.113 40.8583 111.559 40.5751 112.458 40.3316C113.278 40.1036 113.693 39.3094 113.693 37.9561V31.8295C113.693 28.3136 112.148 26.5517 109.05 26.5517C107.665 26.5517 106.383 26.8745 105.197 27.5271C104.074 28.1564 103.517 28.8169 103.517 29.4935V37.917C103.517 39.3562 104.472 40.1666 106.383 40.3316C107.116 40.3946 107.482 40.6225 107.482 41.0238C107.482 41.4167 107.379 41.6452 107.179 41.7239C107.084 41.7551 106.821 41.7629 106.383 41.7473C103.939 41.6531 101.423 41.7785 98.8272 42.1246C98.2619 42.2032 97.9115 42.2272 97.776 42.1954C97.4657 42.1324 97.306 41.8888 97.306 41.472C97.306 41.1024 97.7524 40.7797 98.6439 40.5205C99.4723 40.2764 99.8858 39.2541 99.8858 37.4606V30.4846C99.8858 29.3046 99.7267 28.5493 99.4163 28.2272C99.2014 27.9992 98.4769 27.6765 97.2508 27.2596C96.9398 27.1499 96.7808 26.9375 96.7808 26.607C96.7808 26.3004 97.0989 26.0251 97.736 25.7971C98.6038 25.4743 99.5676 24.9632 100.602 24.2632C101.479 23.6813 102.036 23.3904 102.283 23.3904C102.705 23.3904 102.984 23.8619 103.127 24.8061C103.262 25.7497 103.461 26.2218 103.708 26.2218C103.581 26.2218 104.377 25.7732 106.089 24.8769C107.793 23.9801 109.48 23.532 111.145 23.532C115.174 23.532 117.196 25.7971 117.228 30.319L117.276 37.7359C117.276 38.6879 117.523 39.3718 118.024 39.7809C118.398 40.088 119.115 40.355 120.19 40.5674C120.891 40.7089 121.241 40.9608 121.241 41.3304ZM181.196 24.5068C181.196 24.9237 180.862 25.2932 180.185 25.6004C179.508 25.9069 178.991 26.4887 178.632 27.346C177.04 31.0977 174.986 35.3843 172.462 40.2212C171.88 41.2518 171.084 42.7695 170.073 44.7755C169.054 46.7808 167.509 49.4 165.431 52.6405C164.746 53.7178 163.815 54.1504 162.628 53.9542C161.601 53.8043 160.741 53.5134 160.048 53.0964C159.356 52.6717 159.045 52.2709 159.124 51.8853C159.268 51.2404 159.73 50.8864 160.526 50.8079C161.896 50.6819 162.787 50.5643 163.209 50.4384C163.719 50.2733 164.165 49.9584 164.539 49.4942C165.327 48.4797 166.299 46.9699 167.453 44.956C168.528 43.0766 169.062 42.0226 169.062 41.7947C169.062 41.6369 168.09 39.7887 166.147 36.2416C163.52 31.4516 161.927 28.5415 161.37 27.5194C160.852 26.5362 160.303 25.9621 159.714 25.8127C158.719 25.5529 158.217 25.2224 158.217 24.8217C158.217 24.2476 158.535 23.9801 159.172 24.0274C162.453 24.271 165.463 24.1768 168.202 23.7443C168.68 23.6651 168.918 23.815 168.918 24.1924C168.918 24.727 168.544 25.0893 167.78 25.2698C166.625 25.5451 166.052 26.0484 166.052 26.7719C166.052 26.9057 166.084 27.0551 166.147 27.2044C166.904 28.9741 167.931 31.106 169.221 33.5913C170.431 35.9429 171.092 37.1228 171.196 37.1228C171.339 37.1228 171.856 36.1552 172.74 34.2362C173.775 31.9945 174.731 29.6351 175.623 27.1654C175.638 27.1024 175.646 27.0316 175.646 26.9608C175.646 26.2296 175.272 25.7179 174.524 25.427C173.656 25.1048 173.218 24.8295 173.218 24.6015C173.218 24.0743 173.489 23.8463 174.038 23.9093C176.26 24.2476 178.329 24.2788 180.241 24.0035C180.694 23.9405 180.965 23.9405 181.053 24.0035C181.148 24.0664 181.196 24.2314 181.196 24.5068ZM201.221 38.7821C201.221 39.3484 200.417 40.0406 198.816 40.8583C197.081 41.7317 195.361 42.172 193.665 42.172C191.021 42.172 188.863 41.4329 187.184 39.9543C185.424 38.3891 184.548 36.2656 184.548 33.5913C184.548 30.7125 185.559 28.3214 187.581 26.418C189.556 24.5542 191.977 23.6261 194.851 23.6261C196.595 23.6261 198.108 23.8697 199.398 24.3652C200.584 24.8217 201.173 25.3172 201.173 25.8361C201.173 26.19 200.879 26.7329 200.297 27.4486C199.708 28.172 199.231 28.5338 198.856 28.5338C198.626 28.5338 198.092 28.2038 197.248 27.5428C195.679 26.316 194.453 25.7024 193.569 25.7024C192.176 25.7024 191.021 26.2218 190.122 27.2674C189.174 28.4078 188.704 29.9735 188.704 31.9711C188.704 34.3856 189.389 36.3124 190.759 37.7599C192.009 39.0652 193.506 39.7179 195.265 39.7179C197.009 39.7179 198.649 39.2464 200.194 38.2944C200.329 38.208 200.512 38.1606 200.743 38.1606C201.062 38.1606 201.221 38.3652 201.221 38.7821ZM215.975 41.0707C215.975 41.6921 215.625 41.9674 214.924 41.8888C212.783 41.6999 210.131 41.7317 206.962 41.9831C206.325 42.0461 205.927 42.0304 205.784 41.9362C205.632 41.8415 205.561 41.5901 205.561 41.1732C205.561 40.8036 205.983 40.4888 206.826 40.2374C207.671 39.9776 208.093 39.2224 208.093 37.9645V17.1138C208.093 15.8631 207.909 14.9507 207.543 14.3688C207.177 13.7869 206.532 13.3305 205.616 13.0083C205.131 12.8427 204.892 12.5991 204.892 12.2926C204.892 11.8361 205.242 11.49 205.943 11.262C206.994 10.9237 208.093 10.397 209.223 9.68917C210.155 9.13064 210.752 8.85529 210.999 8.85529C211.58 8.85529 211.867 9.24885 211.867 10.0275C211.867 9.97227 211.835 10.7354 211.771 12.3316C211.724 13.8577 211.708 15.352 211.724 16.8307L211.819 37.4059C211.819 38.3418 212.05 39.0179 212.52 39.4426C212.989 39.8672 213.786 40.1426 214.924 40.2842C215.625 40.3628 215.975 40.6225 215.975 41.0707ZM236 37.8853C236 38.5463 235.101 39.364 233.293 40.3472C231.239 41.4408 229.129 41.9831 226.963 41.9831C224.614 41.9831 222.64 41.2206 221.039 39.7023C219.328 38.0898 218.468 35.9351 218.468 33.253C218.468 30.2092 219.423 27.763 221.334 25.9225C223.125 24.2002 225.323 23.343 227.919 23.343C229.455 23.343 230.896 23.8307 232.234 24.7978C233.429 25.6555 234.225 26.6382 234.615 27.7473C234.758 28.133 234.965 28.3454 235.252 28.3922C235.658 28.4708 235.857 28.7461 235.857 29.2104C235.857 29.8475 235.093 30.3981 233.564 30.8463L222.815 33.9609C223.515 37.6105 225.419 39.4347 228.516 39.4347C230.307 39.4347 232.345 38.7977 234.638 37.5157C234.981 37.319 235.316 37.217 235.642 37.217C235.881 37.217 236 37.4371 236 37.8853ZM230.458 28.6597C230.458 27.8103 230.116 27.0628 229.424 26.4258C228.731 25.7887 227.879 25.4666 226.868 25.4666C224.009 25.4666 222.576 27.4876 222.576 31.5385V32.0886L228.922 30.2566C229.949 29.9572 230.458 29.4306 230.458 28.6597Z" fill="#201E1E"/>
<path fill-rule="evenodd" clip-rule="evenodd" d="M160.458 40.9469C160.283 40.8924 154.136 43.3689 146.854 42.5594C146.266 42.3828 144.403 41.678 143.906 41.4024C143.415 41.1295 142.502 40.6685 142.085 40.3829L141.205 39.8402C138.988 38.4577 137.259 36.5356 135.937 34.2205C134.552 31.7935 133.869 29.3619 133.648 26.6291C133.527 25.1285 133.612 23.402 133.897 22.0629C134.088 21.1604 134.105 20.9342 134.369 19.9668C134.598 19.1278 134.991 18.094 135.362 17.2816L136.636 14.9938C136.683 14.9231 136.742 14.8498 136.792 14.7804C136.901 14.6315 136.979 14.4958 137.1 14.363C137.157 14.2376 137.244 14.1152 137.335 14.0064L138.704 12.3871C139.819 11.2622 140.761 10.3925 142.118 9.5101C144.476 7.97592 146.824 6.93181 149.902 6.70188C152.274 6.52468 155.386 6.53417 157.219 7.23978C157.36 7.29402 157.912 7.53627 158.009 7.53019C158.134 7.52246 158.605 7.23928 158.716 6.98738C158.891 6.58882 158.282 1.482 158.359 1.16114C158.637 1.16954 159.921 1.965 160.337 2.3604C161.585 3.54601 162.076 4.52432 162.579 6.38817C162.949 7.76104 163.268 9.05896 163.579 10.4289C163.828 11.5232 164.067 12.4282 164.406 13.4917C164.502 13.7936 164.709 14.2067 164.769 14.4679C161.154 15.698 160.692 16.8539 158.223 18.0481C156.577 18.8446 154.375 19.2323 152.623 18.8555C152.484 18.8255 152.367 18.7979 152.231 18.7462L151.104 18.35L153.643 15.4327C153.93 15.103 154.291 14.771 154.455 14.5823C154.694 14.3081 155.289 13.82 155.123 13.631C154.989 13.5581 154.679 13.5102 154.517 13.4668C154.311 13.4118 154.07 13.3545 153.877 13.3089C150.819 12.5882 147.911 13.8252 145.469 15.5769C145.291 15.7047 144.515 16.2676 144.417 16.4044C144.487 16.4352 144.525 16.4254 144.563 16.4953C144.605 16.5719 144.571 16.6298 144.67 16.7283C144.593 16.7603 144.58 16.7643 144.526 16.8141L144.659 16.7756L145.075 16.4542C145.543 16.1405 146.019 15.7574 146.536 15.5024C148.354 14.6039 149.432 14.1626 151.513 14.0179C152.089 13.9779 152.671 14.0457 153.231 14.0798C153.393 14.0897 153.704 14.0717 153.809 14.1153C153.876 14.3085 153.547 14.594 153.425 14.723C152.552 15.6396 151.708 16.5937 150.814 17.4883L149.814 18.6301C149.878 18.8585 149.928 18.9126 150.117 18.9973L150.554 19.164C150.703 19.2227 150.805 19.2702 150.965 19.3259C151.132 19.3839 151.255 19.4169 151.407 19.4765C151.615 19.5578 152.114 19.6635 152.317 19.6975C152.489 19.7262 152.606 19.7633 152.79 19.79C154.203 19.9964 156.489 19.7034 157.78 19.1915C159.317 18.5824 159.313 18.5167 160.66 17.6879C161.579 17.1224 162.436 16.5657 163.488 16.1053C164.278 15.76 164.955 15.5748 165.792 15.3256C165.807 14.5938 164.547 9.41684 164.359 8.65683C163.75 6.18244 163.495 4.53987 161.952 2.56687C161.389 1.84662 160.722 1.26438 159.963 0.752265C159.676 0.558601 159.165 0.192069 158.822 0.093573C158.614 0.0339263 158.345 -0.026386 158.122 0.0121307C157.721 0.080845 157.657 0.148894 157.611 0.4626C157.472 1.39548 157.635 2.50282 157.702 3.44885C157.736 3.92935 157.963 5.92489 157.938 6.35298C157.906 6.89895 156.677 6.23793 156.095 6.08694C154.909 5.77889 153.444 5.72906 152.175 5.78979C151.837 5.80593 151.488 5.81159 151.135 5.8254C150.786 5.83879 150.401 5.89552 150.055 5.92797C147.413 6.17637 145.852 6.45913 143.487 7.69299L142.159 8.49494L140.225 9.9817C139.738 10.3801 139.275 10.8381 138.844 11.2742C138.147 11.9794 137.525 12.7495 136.918 13.5121C136.591 13.9242 136.34 14.3745 136.03 14.7947C135.708 15.2314 134.969 16.5843 134.722 17.1377C134.601 17.4087 134.48 17.6598 134.355 17.9323C134.125 18.4366 133.893 19.0899 133.737 19.6327C133.696 19.7714 133.664 19.9271 133.62 20.0642C133.411 20.7112 133.085 22.531 133.018 23.2753C132.866 24.9714 132.806 26.702 133.154 28.3903C133.365 29.4187 133.358 29.5759 133.663 30.659C134.042 32.0065 134.711 33.6705 135.45 34.8365C135.637 35.131 135.816 35.4363 135.994 35.728C136.161 36.0011 136.388 36.2831 136.572 36.5501C136.928 37.0679 137.369 37.5596 137.8 38.0103C138.119 38.344 138.432 38.6998 138.792 38.9885L139.492 39.5836C139.609 39.6719 139.733 39.7639 139.845 39.854C140.257 40.1846 140.658 40.5083 141.128 40.7603C141.238 40.8191 141.228 40.8329 141.328 40.8971C141.744 41.1641 142.087 41.3424 142.497 41.5507C142.576 41.5909 142.626 41.619 142.693 41.6558C142.854 41.744 142.536 41.5798 142.731 41.6768L143.288 41.9375C144.087 42.2733 144.612 42.4852 145.427 42.7412L145.889 42.898L146.292 43.0344C157.272 44.6808 160.195 41.2567 160.458 40.9469Z" fill="#F0E9D2"/>
<path fill-rule="evenodd" clip-rule="evenodd" d="M140.288 27.0024C140.287 27.4502 140.526 28.666 140.666 29.1389C140.869 29.8269 141.223 30.529 141.566 31.1234C142.397 32.5614 143.651 33.8654 145.007 34.8077L146.109 35.4954C146.439 35.6665 146.577 35.7263 146.872 35.8835C152.112 38.6691 154.76 37.6767 158.39 35.0034C158.298 34.9664 153.818 37.4033 147.835 35.4003L146.525 34.8232C146.452 34.7865 146.478 34.7924 146.416 34.7532L144.804 33.7589L143.964 33.0986C143.957 33.0925 143.938 33.0737 143.932 33.0672C143.734 32.8783 143.507 32.7168 143.365 32.5436C143.329 32.4999 143.302 32.451 143.262 32.4113C143.24 32.3899 143.203 32.3682 143.16 32.3293C143.154 32.3249 143.148 32.3191 143.143 32.3144L142.96 32.0969C142.661 31.7588 142.757 31.9766 142.659 31.7303C142.565 31.4962 142.267 31.281 142.104 30.9592L142.013 30.806C141.964 30.7326 141.964 30.7199 141.933 30.6274L141.805 30.6136L141.599 30.1478C141.588 30.1116 141.576 30.0669 141.559 30.033L141.462 29.8904C141.458 29.8824 141.455 29.8749 141.451 29.8667C141.415 29.798 141.432 29.815 141.389 29.7503C141.368 29.7184 141.347 29.7402 141.293 29.5662L141.03 28.8465C140.978 28.7215 140.972 28.552 140.888 28.3753L140.612 27.5494C140.56 27.391 140.499 27.2143 140.451 27.0709C140.399 26.9159 140.499 26.8782 140.34 26.6387C140.295 26.7735 140.328 26.7911 140.368 26.955L140.288 27.0024Z" fill="#DBDCC5"/>
<path fill-rule="evenodd" clip-rule="evenodd" d="M160.037 12.1908C159.905 11.9428 158.841 11.0645 158.479 10.8426C156.673 9.73567 154.966 8.88132 152.802 8.63782C152.078 8.5563 150.349 8.53508 149.677 8.72625L151.021 9.05535C151.477 9.14885 151.876 9.28129 152.36 9.39959C152.898 9.53136 154.376 10.0558 154.94 10.2653C155.148 10.3425 155.373 10.4147 155.57 10.4862C155.678 10.5253 155.748 10.5724 155.873 10.6195C155.984 10.661 156.072 10.6961 156.208 10.7422C157.071 11.0348 157.885 11.3654 158.735 11.698C158.938 11.7771 159.876 12.1952 160.037 12.1908Z" fill="#ECEACD"/>
<path fill-rule="evenodd" clip-rule="evenodd" d="M143.029 17.5264C142.552 17.9487 142.016 18.8427 141.741 19.3723C141.558 19.7219 141.264 20.2691 141.122 20.6483C140.804 21.5027 140.755 21.4366 140.486 22.5592C140.383 22.9888 140.336 23.293 140.27 23.7307C140.216 24.0838 140.119 25.9621 140.243 26.2807L140.312 26.4749C140.379 26.3906 140.361 26.4266 140.329 26.2837C140.339 26.2807 140.408 26.2575 140.414 26.2542C140.47 26.2225 140.439 26.2421 140.467 26.211L140.334 25.7678C140.406 25.7879 140.407 25.8121 140.498 25.8839C140.55 25.9255 140.504 25.8794 140.567 25.9409C140.615 25.9877 140.586 25.9766 140.64 26.0238C140.662 25.9157 140.599 25.8502 140.573 25.727C140.563 25.678 140.567 25.6889 140.564 25.6468L140.556 25.5304C140.468 25.1643 140.645 25.5311 140.506 25.031C140.496 24.9949 140.494 25.0044 140.49 24.9607C140.475 24.8009 140.643 24.9204 140.661 24.7035C140.679 24.4949 140.622 24.6902 140.637 24.5953C140.648 24.5219 140.61 24.6067 140.692 24.5289L140.729 24.4957C140.682 24.301 140.675 24.3082 140.782 24.1509C140.864 24.03 140.818 24.1 140.856 23.9698C140.878 23.8958 140.886 23.8942 140.893 23.8463L141.001 23.3546C141.003 23.3482 141.006 23.3399 141.008 23.3337C141.011 23.3275 141.014 23.3193 141.016 23.3131L141.246 22.5683C141.451 22.2126 141.276 22.4301 141.405 22.1111C141.42 22.0747 141.441 22.028 141.461 21.9914L141.626 21.6374C141.66 21.5325 141.636 21.6195 141.645 21.4983C141.657 21.3137 141.658 21.4865 141.699 21.2754C141.707 21.2329 141.699 21.2334 141.708 21.2066C141.741 21.1057 141.731 21.2446 141.891 20.839L141.917 20.7766C141.922 20.7636 141.937 20.738 141.946 20.7178C141.965 20.6766 141.979 20.6334 141.993 20.596L142.38 19.6621C142.39 19.642 142.403 19.6114 142.408 19.6016C142.496 19.4028 142.664 19.0198 142.775 18.8606C142.998 18.5422 142.824 18.6501 143.005 18.4688C143.514 17.9599 143.246 17.949 144.21 17.1787L144.659 16.7755L144.526 16.8141C144.58 16.7642 144.593 16.7602 144.67 16.728C144.571 16.6298 144.605 16.572 144.563 16.4952C144.525 16.4254 144.487 16.4351 144.417 16.4044C144.215 16.5176 143.932 16.8129 143.739 16.9763C143.531 17.1525 143.323 17.3778 143.029 17.5264Z" fill="#DBDDCA"/>
<path fill-rule="evenodd" clip-rule="evenodd" d="M160.037 12.1904C159.876 12.1948 158.938 11.7773 158.735 11.6981C157.885 11.3658 157.071 11.0349 156.208 10.742C156.071 10.6962 155.984 10.6608 155.874 10.6196C155.748 10.5722 155.678 10.5255 155.57 10.4861C155.373 10.4147 155.147 10.3422 154.94 10.2649C154.375 10.0557 152.898 9.53146 152.359 9.39953C151.876 9.2814 151.476 9.14888 151.021 9.05546L149.677 8.72603C150.349 8.53494 152.077 8.55615 152.803 8.63801C154.966 8.88117 156.674 9.73569 158.479 10.8424C158.841 11.0644 159.905 11.9428 160.037 12.1904ZM158.287 35.0495C158.091 35.3 155.593 36.2467 155.049 36.3713C154.722 36.4457 154.579 36.4909 154.216 36.5776L152.93 36.7795C151.281 36.9561 149.468 36.7946 147.882 36.2565C147.487 36.1227 147.064 35.9613 146.655 35.7707C146.521 35.7028 146.406 35.6471 146.246 35.5658C146.156 35.5172 146.067 35.467 145.98 35.4152L145.813 35.3109C145.362 35.0154 144.452 34.3155 144.167 33.9954C144.006 33.866 143.718 33.6553 143.652 33.4825C143.346 33.3239 142.164 31.8499 141.968 31.5502C141.725 31.1781 141.557 30.9185 141.347 30.5288C140.802 29.5151 140.879 29.5278 140.553 28.6905C140.425 28.1263 140.287 27.3425 140.288 27.0022C140.252 26.7995 140.178 26.4535 140.243 26.2811C140.12 25.9621 140.216 24.0838 140.27 23.731C140.336 23.2932 140.383 22.9891 140.486 22.5593C140.756 21.4363 140.805 21.5027 141.122 20.6486C141.264 20.2691 141.559 19.7221 141.741 19.3721C142.017 18.8428 142.553 17.9489 143.029 17.5265C143.323 17.3778 143.532 17.1528 143.739 16.9761C143.932 16.8131 144.215 16.5178 144.417 16.4045C144.515 16.2681 145.291 15.7049 145.469 15.5774C147.912 13.8253 150.819 12.5881 153.877 13.309C154.07 13.3542 154.311 13.4118 154.518 13.4665C154.679 13.5102 154.989 13.558 155.123 13.6309C155.289 13.82 154.694 14.3078 154.456 14.582C154.292 14.7711 153.93 15.1028 153.643 15.4327L151.104 18.35L152.231 18.7465C152.368 18.798 152.484 18.8256 152.623 18.8556C154.375 19.2324 156.577 18.8449 158.223 18.0484C160.693 16.8539 161.155 15.698 164.769 14.4678C164.709 14.2069 164.503 13.7938 164.406 13.4916C164.066 12.4283 163.828 11.5233 163.579 10.429C163.268 9.05878 162.949 7.76111 162.579 6.38824C162.076 4.52422 161.586 3.54608 160.338 2.36063C159.921 1.96523 158.638 1.16978 158.36 1.16138C158.282 1.48182 158.891 6.58906 158.716 6.9872C158.605 7.23935 158.135 7.52236 158.009 7.53068C157.912 7.53617 157.36 7.29401 157.219 7.23977C155.386 6.5344 152.274 6.52459 149.902 6.70178C146.824 6.93213 144.476 7.97616 142.118 9.50975C140.761 10.3925 139.819 11.2623 138.704 12.3872L137.336 14.006C137.245 14.1154 137.157 14.2374 137.1 14.3635C136.979 14.4959 136.901 14.6318 136.793 14.7803C136.742 14.8498 136.683 14.9231 136.636 14.9942L135.363 17.2819C134.991 18.0941 134.598 19.1278 134.369 19.9669C134.105 20.9341 134.088 21.1607 133.897 22.0629C133.612 23.4021 133.527 25.1285 133.648 26.6292C133.869 29.3624 134.552 31.7938 135.937 34.2204C135.98 34.2947 136.022 34.3686 136.066 34.4424V34.4539C136.254 34.7812 136.472 35.1203 136.712 35.4626C137.616 36.7898 138.68 37.9595 139.92 38.9372C141.636 40.3919 143.497 41.4844 145.726 42.2539C148.265 43.1306 150.849 43.4466 153.438 43.0391L154.462 42.8721C154.965 42.815 155.96 42.5655 156.51 42.4508C157.064 42.3352 158.927 41.6532 159.498 41.3973C159.671 41.3193 159.819 41.2442 159.987 41.1713C160.141 41.1035 160.325 41.0364 160.458 40.9467C162.299 39.4245 161.882 33.351 158.287 35.0495Z" fill="#157943"/>
</svg>
