<svg width="20" height="20" viewBox="0 0 20 20" fill="none" xmlns="http://www.w3.org/2000/svg">
<path d="M2.82481 17.1752C1.94206 16.2924 1.25057 15.2724 0.75034 14.115C0.250113 12.9576 0 11.761 0 10.5251C0 9.28927 0.235401 8.06813 0.706202 6.8617C1.177 5.65527 1.94206 4.52241 3.00136 3.46311C3.68794 2.77652 4.53637 2.18802 5.54663 1.6976C6.55689 1.20718 7.75351 0.819753 9.13649 0.53531C10.5195 0.250868 12.0986 0.0792214 13.8739 0.0203712C15.6492 -0.038479 17.6354 0.0301796 19.8325 0.226347C19.9894 2.30572 20.0385 4.21835 19.9796 5.96424C19.9208 7.71012 19.7589 9.28437 19.4941 10.687C19.2293 12.0896 18.8566 13.3156 18.376 14.3651C17.8954 15.4146 17.3019 16.2924 16.5957 16.9986C15.5561 18.0383 14.4526 18.7985 13.2854 19.2791C12.1182 19.7597 10.9265 20 9.71028 20C8.43519 20 7.18953 19.7499 5.97329 19.2497C4.75706 18.7494 3.70756 18.0579 2.82481 17.1752ZM6.12042 16.7044C6.6893 17.0379 7.2729 17.2782 7.87121 17.4253C8.46952 17.5724 9.08254 17.646 9.71028 17.646C10.6126 17.646 11.5052 17.4645 12.388 17.1016C13.2707 16.7387 14.1142 16.1551 14.9185 15.3508C15.2716 14.9977 15.6296 14.5024 15.9925 13.8649C16.3554 13.2273 16.6693 12.3936 16.9341 11.3637C17.199 10.3339 17.4 9.0882 17.5373 7.62675C17.6747 6.16531 17.6943 4.42432 17.5962 2.4038C16.635 2.36457 15.5512 2.34986 14.3447 2.35966C13.1383 2.36947 11.9368 2.46265 10.7402 2.6392C9.54354 2.81575 8.40577 3.1002 7.32685 3.49253C6.24793 3.88486 5.36517 4.42432 4.67859 5.11091C3.79584 5.99366 3.18772 6.86661 2.85423 7.72974C2.52075 8.59288 2.35401 9.42659 2.35401 10.2309C2.35401 11.3883 2.57469 12.4034 3.01607 13.2764C3.45745 14.1493 3.84488 14.7623 4.17836 15.1154C5.00226 13.5461 6.09099 12.0405 7.44455 10.5987C8.7981 9.15686 10.3772 7.97495 12.182 7.05297C10.7696 8.28882 9.53863 9.68651 8.48914 11.246C7.43964 12.8056 6.65007 14.625 6.12042 16.7044Z" fill="white"/>
</svg>
