<svg width="37" height="37" viewBox="0 0 37 37" fill="none" xmlns="http://www.w3.org/2000/svg">
<path d="M5.58301 31.4137C3.99427 29.8249 2.74975 27.989 1.84946 25.906C0.949168 23.823 0.499023 21.6694 0.499023 19.4451C0.499023 17.2209 0.922689 15.0231 1.77002 12.8518C2.61735 10.6805 3.99427 8.64165 5.90076 6.73515C7.13645 5.49946 8.66341 4.4403 10.4816 3.55766C12.2999 2.67502 14.4535 1.97774 16.9425 1.46581C19.4316 0.953883 22.2737 0.64496 25.4688 0.539044C28.664 0.433127 32.2386 0.556696 36.1929 0.909751C36.4753 4.65213 36.5636 8.09441 36.4576 11.2366C36.3517 14.3788 36.0605 17.2121 35.5838 19.7364C35.1072 22.2607 34.4364 24.4673 33.5714 26.3562C32.7064 28.245 31.6385 29.8249 30.3675 31.0959C28.4963 32.9671 26.5103 34.3352 24.4097 35.2002C22.309 36.0652 20.1642 36.4977 17.9752 36.4977C15.6804 36.4977 13.4385 36.0475 11.2495 35.1472C9.0606 34.2469 7.17176 33.0024 5.58301 31.4137ZM11.5143 30.5663C12.5382 31.1665 13.5885 31.599 14.6653 31.8638C15.7422 32.1286 16.8455 32.261 17.9752 32.261C19.5993 32.261 21.2057 31.9344 22.7944 31.2813C24.3832 30.6281 25.9013 29.5778 27.3488 28.1303C27.9843 27.4948 28.6287 26.6033 29.2818 25.4559C29.935 24.3085 30.4998 22.808 30.9765 20.9544C31.4531 19.1009 31.815 16.859 32.0621 14.2287C32.3093 11.5985 32.3446 8.46512 32.168 4.82866C30.4381 4.75805 28.4874 4.73157 26.3162 4.74922C24.1449 4.76687 21.9824 4.93457 19.8288 5.25232C17.6751 5.57007 15.6274 6.082 13.6856 6.78811C11.7438 7.49422 10.1551 8.46512 8.91938 9.70081C7.33063 11.2896 6.23616 12.8607 5.63597 14.4141C5.03578 15.9675 4.73568 17.468 4.73568 18.9155C4.73568 20.9986 5.13287 22.8256 5.92724 24.3967C6.72161 25.9678 7.4189 27.0711 8.01909 27.7066C9.50192 24.8822 11.4614 22.1725 13.8975 19.5775C16.3335 16.9826 19.1756 14.8554 22.4237 13.1961C19.8817 15.4203 17.6663 17.9358 15.7775 20.7426C13.8886 23.5494 12.4676 26.824 11.5143 30.5663Z" fill="#111C12"/>
</svg>
