<?xml version="1.0" encoding="utf-8"?>
<!-- Generator: Adobe Illustrator 27.5.0, SVG Export Plug-In . SVG Version: 6.00 Build 0)  -->
<svg version="1.1" id="Layer_1" xmlns="http://www.w3.org/2000/svg" xmlns:xlink="http://www.w3.org/1999/xlink" x="0px" y="0px"
	 viewBox="0 0 216 50" style="enable-background:new 0 0 216 50;" xml:space="preserve">
<style type="text/css">
	.st0{fill:#157943;}
	.st1{fill:#FFFFFF;}
	.st2{fill-rule:evenodd;clip-rule:evenodd;fill:#FFFFFF;}
</style>
<path class="st0" d="M193.3,26.9h-64.2c-2.8,0-5-2.3-5-5v-7.6c0-2.8,2.3-5,5-5h64.2c2.8,0,5,2.3,5,5v7.6
	C198.3,24.7,196,26.9,193.3,26.9z"/>
<path class="st1" d="M137.1,18.4c0,0.2-0.1,0.2-0.3,0.2c-0.3,0.1-0.5,0.1-0.5,0.1c-0.2,0.1-0.2,0.2-0.2,0.4v2c0,0.2-0.3,0.5-1,0.8
	c-0.8,0.3-1.6,0.5-2.5,0.5c-1.4,0-2.4-0.4-3.3-1.2c-0.9-0.8-1.4-1.8-1.4-3.1c0-1.3,0.5-2.3,1.4-3.3c0.9-0.8,2-1.2,3.3-1.2
	c1,0,1.8,0.2,2.5,0.4c0.5,0.2,0.8,0.4,0.8,0.5c0.1,0.3,0.1,0.8,0.1,1.4c0,0.2-0.1,0.2-0.2,0.2c-0.2,0-0.3-0.1-0.4-0.2
	c-0.2-0.6-0.5-1.1-1-1.4c-0.5-0.3-1-0.5-1.7-0.5c-1,0-1.8,0.3-2.4,0.9c-0.6,0.7-0.9,1.6-0.9,2.8c0,1.1,0.3,2.1,1,2.8
	c0.7,0.7,1.5,1.1,2.6,1.1c0.5,0,1.1-0.1,1.5-0.3c0.5-0.2,0.7-0.4,0.7-0.5v-1.3c0-0.3-0.1-0.5-0.2-0.7c-0.1-0.2-0.3-0.2-0.7-0.3
	c-0.2-0.1-0.4-0.2-0.4-0.2c0-0.1,0.1-0.2,0.1-0.2c0.1,0,0.2,0,0.3,0c0.9,0.1,1.8,0.2,2.6,0c0.1,0,0.1,0,0.2,0
	C137.1,18.2,137.1,18.2,137.1,18.4z M142.2,17.7c0,0.5-0.2,0.8-0.5,0.8c-0.1,0-0.2,0-0.5-0.1c-0.2-0.1-0.5-0.1-0.6-0.1
	c-0.5,0-0.7,0.3-0.7,1v1.9c0,0.2,0.1,0.4,0.2,0.5c0.1,0.1,0.3,0.2,0.7,0.2c0.2,0.1,0.3,0.2,0.3,0.2c0,0.2,0,0.2-0.1,0.2
	c0,0-0.1,0-0.2,0c-0.9-0.1-1.7-0.1-2.2,0c-0.2,0-0.3,0-0.3,0s-0.1-0.1-0.1-0.2c0-0.2,0.2-0.2,0.4-0.3c0.2-0.1,0.4-0.3,0.4-0.6v-2
	c0-0.3,0-0.5-0.1-0.5c-0.1-0.1-0.2-0.2-0.6-0.4l0,0c-0.1-0.1-0.2-0.1-0.2-0.2c0-0.1,0.1-0.2,0.2-0.2c0.3-0.1,0.5-0.2,0.8-0.5
	c0.2-0.2,0.3-0.2,0.4-0.2c0.2,0,0.2,0.2,0.3,0.4c0.1,0.3,0.1,0.5,0.2,0.5c0,0,0.2-0.2,0.7-0.5c0.3-0.2,0.7-0.3,1.1-0.3
	C142.1,17.2,142.2,17.4,142.2,17.7z M147.8,21.2c0,0.2-0.2,0.4-0.8,0.7s-1.1,0.5-1.7,0.5c-0.7,0-1.2-0.2-1.6-0.6
	c-0.5-0.5-0.7-1.1-0.7-1.8c0-0.8,0.2-1.5,0.8-2c0.5-0.5,1.1-0.7,1.8-0.7c0.5,0,0.8,0.2,1.2,0.4c0.3,0.2,0.5,0.5,0.7,0.8
	c0.1,0.1,0.1,0.2,0.2,0.2s0.2,0.1,0.2,0.2c0,0.2-0.2,0.3-0.6,0.5l-3,0.8c0.2,1,0.7,1.5,1.6,1.5c0.5,0,1.1-0.2,1.7-0.5
	c0.1-0.1,0.2-0.1,0.3-0.1C147.8,21,147.8,21,147.8,21.2z M146.3,18.6c0-0.2-0.1-0.5-0.3-0.6c-0.2-0.2-0.5-0.3-0.7-0.3
	c-0.8,0-1.2,0.5-1.2,1.7v0.2l1.7-0.5C146.2,19,146.3,18.8,146.3,18.6z M153.6,21.2c0,0.2-0.2,0.4-0.8,0.7c-0.5,0.3-1.1,0.5-1.7,0.5
	c-0.7,0-1.2-0.2-1.6-0.6c-0.5-0.5-0.7-1.1-0.7-1.8c0-0.8,0.2-1.5,0.8-2c0.5-0.5,1.1-0.7,1.8-0.7c0.5,0,0.8,0.2,1.2,0.4
	c0.3,0.2,0.5,0.5,0.7,0.8c0.1,0.1,0.1,0.2,0.2,0.2c0.1,0,0.2,0.1,0.2,0.2c0,0.2-0.2,0.3-0.6,0.5l-3,0.8c0.2,1,0.7,1.5,1.6,1.5
	c0.5,0,1.1-0.2,1.7-0.5c0.1-0.1,0.2-0.1,0.3-0.1C153.5,21,153.6,21,153.6,21.2z M152,18.6c0-0.2-0.1-0.5-0.3-0.6
	c-0.2-0.2-0.5-0.3-0.7-0.3c-0.8,0-1.2,0.5-1.2,1.7v0.2l1.7-0.5C151.9,19,152,18.8,152,18.6z M161.2,22.1c0,0.2-0.1,0.2-0.3,0.2
	c-0.9-0.1-1.6-0.1-2,0c-0.2,0-0.4,0-0.4-0.1v-0.1c0-0.1,0.2-0.2,0.4-0.2c0.2-0.1,0.3-0.3,0.3-0.7v-1.7c0-1-0.5-1.4-1.3-1.4
	c-0.4,0-0.8,0.1-1.1,0.3c-0.3,0.2-0.5,0.4-0.5,0.5v2.3c0,0.4,0.2,0.6,0.8,0.7c0.2,0,0.3,0.1,0.3,0.2c0,0.1,0,0.2-0.1,0.2
	c0,0-0.1,0-0.2,0c-0.7,0-1.4,0-2,0.1c-0.2,0-0.2,0-0.3,0s-0.2-0.1-0.2-0.2c0-0.1,0.2-0.2,0.4-0.2c0.2-0.1,0.3-0.4,0.3-0.8v-2
	c0-0.3-0.1-0.5-0.2-0.6c-0.1-0.1-0.2-0.2-0.6-0.3c-0.1,0-0.2-0.1-0.2-0.2c0-0.1,0.1-0.2,0.2-0.2c0.2-0.1,0.5-0.2,0.8-0.5
	c0.2-0.2,0.4-0.2,0.5-0.2c0.2,0,0.2,0.2,0.2,0.4c0,0.2,0.1,0.4,0.2,0.4c0,0,0.2-0.2,0.7-0.4c0.5-0.2,0.9-0.4,1.4-0.4
	c1.1,0,1.7,0.6,1.7,1.9v2c0,0.2,0.1,0.5,0.2,0.5c0.1,0.1,0.3,0.2,0.6,0.2C161.1,21.9,161.2,22,161.2,22.1z M177.6,17.5
	c0,0.2-0.1,0.2-0.3,0.3c-0.2,0.1-0.3,0.2-0.5,0.5c-0.5,1.1-1,2.2-1.7,3.6c-0.2,0.3-0.4,0.7-0.7,1.3c-0.3,0.5-0.7,1.3-1.3,2.2
	c-0.2,0.3-0.5,0.5-0.8,0.4c-0.3-0.1-0.5-0.2-0.7-0.2c-0.2-0.2-0.3-0.2-0.2-0.3c0.1-0.2,0.2-0.3,0.4-0.3c0.4,0,0.6-0.1,0.8-0.1
	c0.2-0.1,0.2-0.2,0.4-0.2c0.2-0.3,0.5-0.7,0.8-1.3c0.3-0.5,0.5-0.8,0.5-0.9c0-0.1-0.3-0.5-0.8-1.5c-0.8-1.4-1.1-2.1-1.3-2.4
	c-0.2-0.3-0.3-0.5-0.5-0.5c-0.3-0.1-0.4-0.2-0.4-0.3c0-0.2,0.1-0.2,0.2-0.2c0.9,0.1,1.7,0.1,2.5-0.1c0.2,0,0.2,0,0.2,0.2
	s-0.1,0.2-0.3,0.3c-0.3,0.1-0.5,0.2-0.5,0.5c0,0,0,0.1,0,0.2c0.2,0.5,0.5,1.1,0.8,1.7c0.3,0.7,0.5,1,0.5,1c0.1,0,0.2-0.3,0.5-0.8
	c0.3-0.6,0.5-1.3,0.8-2c0,0,0,0,0-0.1c0-0.2-0.1-0.4-0.3-0.5c-0.2-0.1-0.4-0.2-0.4-0.2c0-0.2,0.1-0.2,0.2-0.2c0.6,0.1,1.2,0.1,1.7,0
	c0.2,0,0.2,0,0.2,0C177.6,17.3,177.6,17.4,177.6,17.5z M183.1,21.4c0,0.2-0.2,0.4-0.7,0.6c-0.5,0.2-1,0.4-1.4,0.4
	c-0.8,0-1.3-0.2-1.7-0.6c-0.5-0.5-0.8-1.1-0.8-1.7c0-0.8,0.3-1.4,0.8-2c0.5-0.5,1.2-0.8,2-0.8c0.5,0,0.9,0.1,1.2,0.2
	c0.3,0.2,0.5,0.2,0.5,0.4c0,0.1-0.1,0.2-0.2,0.5c-0.2,0.2-0.3,0.3-0.4,0.3s-0.2-0.1-0.5-0.3c-0.5-0.3-0.8-0.5-1-0.5
	c-0.4,0-0.7,0.2-0.9,0.5s-0.4,0.8-0.4,1.3c0,0.7,0.2,1.2,0.5,1.6c0.4,0.4,0.8,0.5,1.2,0.5s0.9-0.2,1.4-0.4c0,0,0.1,0,0.2,0
	C183.1,21.3,183.1,21.3,183.1,21.4z M187.2,22c0,0.2-0.1,0.2-0.3,0.2c-0.6-0.1-1.3-0.1-2.2,0c-0.2,0-0.3,0-0.3,0
	c-0.1,0-0.1-0.1-0.1-0.2c0-0.1,0.2-0.2,0.4-0.2c0.2-0.1,0.4-0.3,0.4-0.6v-5.8c0-0.4-0.1-0.6-0.2-0.8c-0.1-0.2-0.3-0.3-0.5-0.4
	c-0.2-0.1-0.2-0.1-0.2-0.2c0-0.2,0.1-0.2,0.3-0.3c0.3-0.1,0.6-0.2,0.9-0.5c0.2-0.2,0.5-0.2,0.5-0.2c0.2,0,0.2,0.1,0.2,0.3
	c0,0,0,0.2,0,0.6c0,0.5,0,0.8,0,1.2v5.7c0,0.2,0.1,0.5,0.2,0.5c0.2,0.2,0.4,0.2,0.7,0.2C187.1,21.9,187.2,21.9,187.2,22z
	 M192.6,21.2c0,0.2-0.2,0.4-0.8,0.7s-1.1,0.5-1.7,0.5c-0.7,0-1.2-0.2-1.6-0.6c-0.5-0.5-0.7-1.1-0.7-1.8c0-0.8,0.2-1.5,0.8-2
	c0.5-0.5,1.1-0.7,1.8-0.7c0.5,0,0.8,0.2,1.2,0.4c0.3,0.2,0.5,0.5,0.7,0.8c0.1,0.1,0.1,0.2,0.2,0.2s0.2,0.1,0.2,0.2
	c0,0.2-0.2,0.3-0.6,0.5l-3,0.8c0.2,1,0.7,1.5,1.6,1.5c0.5,0,1.1-0.2,1.7-0.5c0.1-0.1,0.2-0.1,0.3-0.1C192.6,21,192.6,21,192.6,21.2z
	 M191.1,18.6c0-0.2-0.1-0.5-0.3-0.6c-0.2-0.2-0.5-0.3-0.7-0.3c-0.8,0-1.2,0.5-1.2,1.7v0.2l1.7-0.5C191,19,191.1,18.8,191.1,18.6z"/>
<path class="st2" d="M171.8,14c-0.1,0-0.3-0.2-0.4-0.2c-0.2-0.1-0.5-0.2-0.7-0.3h-0.1h-0.1c-0.1,0-0.2-0.1-0.2-0.1
	c-0.2-0.1-0.5-0.2-0.7-0.2c-0.2,0-0.2-0.1-0.4-0.1l-0.4-0.1c0.2-0.1,0.7-0.1,0.8,0c0.6,0.1,1.1,0.3,1.6,0.6
	C171.5,13.7,171.8,14,171.8,14z M171.4,20.4c-0.1,0.1-0.8,0.3-0.9,0.4c-0.1,0-0.2,0-0.2,0.1l-0.4,0.1c-0.5,0.1-1,0-1.4-0.2
	c-0.1,0-0.2-0.1-0.3-0.2c0,0-0.1,0-0.1-0.1c0,0-0.1,0-0.1-0.1h-0.1c-0.2-0.1-0.4-0.3-0.5-0.4c-0.1,0-0.2-0.1-0.2-0.2
	c-0.1-0.1-0.4-0.5-0.5-0.5c-0.1-0.1-0.1-0.2-0.2-0.3c-0.2-0.3-0.2-0.3-0.2-0.5c0-0.2-0.1-0.4-0.1-0.5c0-0.1,0-0.2,0-0.2
	c0-0.1,0-0.6,0-0.7c0-0.2,0-0.2,0.1-0.3c0.1-0.3,0.1-0.3,0.2-0.5c0.1-0.1,0.2-0.2,0.2-0.4c0.1-0.2,0.2-0.4,0.4-0.5
	c0.1-0.1,0.2-0.1,0.2-0.2c0.1-0.1,0.2-0.2,0.2-0.2s0.2-0.2,0.3-0.2c0.7-0.5,1.4-0.8,2.3-0.6c0.1,0,0.2,0,0.2,0.1
	c0.1,0,0.2,0,0.2,0.1c0.1,0.1-0.2,0.2-0.2,0.2c-0.1,0.1-0.2,0.2-0.2,0.2l-0.7,0.8l0.3,0.1h0.1c0.5,0.1,1.1,0,1.5-0.2
	c0.7-0.3,0.8-0.7,1.8-1c0-0.1-0.1-0.2-0.1-0.3c-0.1-0.3-0.2-0.5-0.2-0.8c-0.1-0.4-0.2-0.8-0.3-1.1c-0.2-0.5-0.3-0.8-0.6-1.1
	c-0.2-0.1-0.5-0.3-0.5-0.3c0,0.1,0.2,1.5,0.1,1.6c0,0.1-0.2,0.2-0.2,0.2c0,0-0.2-0.1-0.2-0.1c-0.5-0.2-1.4-0.2-2-0.2
	c-0.8,0.1-1.5,0.4-2.1,0.8c-0.4,0.2-0.6,0.5-0.9,0.8l-0.4,0.5l-0.1,0.1c0,0-0.1,0.1-0.1,0.2c0,0,0,0.1-0.1,0.1l-0.4,0.6
	c-0.1,0.2-0.2,0.5-0.3,0.8c-0.1,0.3-0.1,0.3-0.2,0.6c-0.1,0.4-0.1,0.8-0.1,1.3c0.1,0.8,0.2,1.4,0.6,2.1v0.1l0,0
	c0.1,0.1,0.1,0.2,0.2,0.3c0.2,0.4,0.5,0.7,0.9,1c0.5,0.4,1,0.7,1.6,0.9c0.7,0.2,1.4,0.3,2.1,0.2l0.3-0.1c0.2,0,0.4-0.1,0.5-0.2
	c0.2,0,0.7-0.2,0.8-0.3c0.1,0,0.1-0.1,0.2-0.1s0.1,0,0.2-0.1C172.5,21.6,172.3,19.9,171.4,20.4z"/>
</svg>
