<?xml version="1.0" encoding="UTF-8"?>
<!DOCTYPE svg PUBLIC "-//W3C//DTD SVG 1.1//EN" "http://www.w3.org/Graphics/SVG/1.1/DTD/svg11.dtd">
<!-- Creator: CorelDRAW -->
<svg xmlns="http://www.w3.org/2000/svg" xml:space="preserve" width="87.36mm" height="90.034mm" version="1.1" style="shape-rendering:geometricPrecision; text-rendering:geometricPrecision; image-rendering:optimizeQuality; fill-rule:evenodd; clip-rule:evenodd"
viewBox="0 0 8736 9003.4"
 xmlns:xlink="http://www.w3.org/1999/xlink"
 xmlns:xodm="http://www.corel.com/coreldraw/odm/2003">
 <defs>
  <style type="text/css">
   <![CDATA[
    .fil5 {fill:#157943}
    .fil2 {fill:#DBDCC5}
    .fil4 {fill:#DBDDCA}
    .fil0 {fill:#DFDDD2}
    .fil3 {fill:#ECEACD}
    .fil1 {fill:#F0E9D2}
    .fil6 {fill:#201E1E;fill-rule:nonzero}
   ]]>
  </style>
 </defs>
 <g id="Camada_x0020_1">
  <metadata id="CorelCorpID_0Corel-Layer"/>
  <rect class="fil0" x="-14.76" y="2.57" width="8763.92" height="9003.4"/>
  <g id="_2801648019664">
   <g>
    <path class="fil1" d="M7645.68 8362.11c-28.57,-9.01 -1032.51,400.41 -2221.77,266.59 -95.98,-29.2 -400.22,-145.72 -481.42,-191.29 -80.08,-45.11 -229.23,-121.33 -297.38,-168.56l-143.73 -89.71c-361.99,-228.58 -644.44,-546.35 -860.24,-929.12 -226.21,-401.25 -337.82,-803.28 -373.9,-1255.09 -19.78,-248.1 -5.85,-533.53 40.59,-754.93 31.26,-149.21 34.06,-186.61 77.18,-346.55 37.36,-138.71 101.64,-309.64 162.19,-443.95l208 -378.23c7.72,-11.7 17.28,-23.83 25.53,-35.29 17.72,-24.62 30.5,-47.06 50.23,-69.01 9.36,-20.74 23.59,-40.97 38.48,-58.97l223.54 -267.7c182.04,-185.98 335.92,-329.78 557.47,-475.67 385.16,-253.64 768.68,-426.26 1271.23,-464.28 387.37,-29.3 895.72,-27.73 1195.04,88.92 22.96,8.97 113.23,49.03 128.95,48.03 20.54,-1.28 97.37,-48.09 115.44,-89.75 28.61,-65.89 -70.84,-910.21 -58.16,-963.25 45.36,1.38 255.05,132.9 323.02,198.27 203.82,196.02 283.99,357.77 366.05,665.91 60.42,226.98 112.54,441.56 163.37,668.06 40.61,180.92 79.61,330.54 135.01,506.38 15.72,49.9 49.48,118.22 59.31,161.4 -590.32,203.36 -665.77,394.47 -1068.97,591.91 -268.87,131.69 -628.54,195.79 -914.6,133.5 -22.75,-4.96 -41.79,-9.53 -64.02,-18.08l-184.08 -65.52 414.63 -482.32c46.88,-54.5 105.88,-109.38 132.68,-140.58 38.96,-45.33 136.2,-126.05 109.05,-157.28 -21.92,-12.05 -72.44,-19.98 -98.93,-27.15 -33.67,-9.1 -73.02,-18.56 -104.61,-26.11 -499.28,-119.15 -974.2,85.36 -1373.07,374.98 -29.08,21.12 -155.81,114.2 -171.81,136.81 11.36,5.09 17.66,3.46 23.86,15.03 6.81,12.68 1.21,22.23 17.48,38.51 -12.57,5.29 -14.71,5.95 -23.54,14.19l21.71 -6.37 67.97 -53.12c76.43,-51.87 154.13,-115.21 238.51,-157.38 297,-148.55 473.07,-221.51 812.83,-245.44 94.08,-6.6 189.21,4.61 280.62,10.25 26.39,1.64 77.29,-1.35 94.39,5.85 10.94,31.97 -42.73,79.17 -62.78,100.5 -142.45,151.52 -280.37,309.28 -426.32,457.17l-163.3 188.8c10.35,37.73 18.63,46.7 49.51,60.69l71.23 27.57c24.38,9.69 40.99,17.55 67.21,26.76 27.29,9.59 47.3,15.03 72.19,24.89 33.91,13.45 115.46,30.94 148.59,36.54 28.16,4.74 47.16,10.87 77.18,15.31 230.86,34.11 604.11,-14.34 815.05,-98.97 250.91,-100.7 250.29,-111.56 470.24,-248.58 150.1,-93.49 290.07,-185.54 461.92,-261.65 128.96,-57.1 239.52,-87.71 376.22,-128.92 2.5,-120.98 -203.33,-976.89 -233.94,-1102.55 -99.55,-409.08 -141.18,-680.66 -393.14,-1006.85 -92.01,-119.08 -200.95,-215.34 -324.78,-300.01 -46.88,-32.02 -130.33,-92.62 -186.39,-108.89 -34.04,-9.88 -77.91,-19.85 -114.34,-13.48 -65.41,11.37 -75.91,22.61 -83.49,74.48 -22.67,154.24 3.95,337.3 14.86,493.72 5.54,79.43 42.63,409.35 38.57,480.14 -5.12,90.27 -205.89,-19.02 -300.9,-43.99 -193.81,-50.93 -433.01,-59.17 -640.26,-49.13 -55.12,2.67 -112.15,3.6 -169.87,5.89 -57.03,2.21 -119.88,11.6 -176.36,16.97 -431.45,41.07 -686.34,87.81 -1072.64,291.8l-216.94 132.58 -315.76 245.82c-79.57,65.87 -155.1,141.59 -225.49,213.69 -113.82,116.59 -215.52,243.91 -314.55,369.98 -53.5,68.15 -94.4,142.6 -144.99,212.06 -52.63,72.19 -173.37,295.88 -213.64,387.37 -19.74,44.81 -39.62,86.32 -59.95,131.37 -37.56,83.38 -75.45,191.39 -101.04,281.14 -6.53,22.92 -11.84,48.65 -19.04,71.33 -34.11,106.97 -87.4,407.84 -98.27,530.91 -24.83,280.4 -34.66,566.53 22.09,845.65 34.53,170.02 33.35,196.02 83.18,375.08 61.94,222.79 171.19,497.9 291.86,690.67 30.48,48.68 59.77,99.17 88.9,147.41 27.21,45.15 64.33,91.76 94.32,135.91 58.1,85.59 130.2,166.9 200.56,241.41 52.11,55.17 103.18,114 162.08,161.72l114.24 98.4c19.08,14.58 39.41,29.82 57.72,44.71 67.21,54.64 132.77,108.17 209.42,149.83 17.95,9.73 16.38,12.01 32.66,22.61 68,44.15 123.96,73.62 191,108.07 12.92,6.65 21.01,11.29 31.93,17.38 26.29,14.58 -25.66,-12.57 6.3,3.47l90.93 43.11c130.47,55.5 216.21,90.55 349.28,132.86l75.56 25.94 65.72 22.54c1793.16,272.21 2270.6,-293.92 2313.53,-345.12z"/>
    <path class="fil2" d="M4351.54 6056.64c-0.13,74.03 38.9,275.04 61.75,353.23 33.23,113.75 90.97,229.82 147.05,328.09 135.75,237.74 340.49,453.34 562.01,609.12l179.92 113.71c53.84,28.29 76.39,38.17 124.65,64.17 855.67,460.54 1288.22,296.47 1880.91,-145.51 -15,-6.12 -746.63,396.76 -1723.66,65.62l-213.97 -95.43c-11.9,-6.06 -7.75,-5.09 -17.87,-11.57l-263.23 -164.37 -137.09 -109.17c-1.14,-1.01 -4.26,-4.12 -5.36,-5.2 -32.35,-31.23 -69.25,-57.93 -92.59,-86.57 -5.89,-7.23 -10.19,-15.3 -16.76,-21.88 -3.54,-3.53 -9.63,-7.1 -16.72,-13.54 -0.84,-0.73 -1.95,-1.7 -2.74,-2.46l-29.89 -35.97c-48.83,-55.89 -33.06,-19.88 -49.13,-60.6 -15.28,-38.72 -64.07,-74.27 -90.62,-127.49l-14.9 -25.32c-8.06,-12.15 -8.03,-14.23 -13.01,-29.54l-20.92 -2.29 -33.58 -77c-1.91,-6 -3.81,-13.37 -6.55,-18.98l-15.82 -23.58c-0.74,-1.31 -1.22,-2.57 -1.94,-3.92 -5.89,-11.35 -3.01,-8.55 -10.04,-19.24 -3.5,-5.27 -6.93,-1.67 -15.73,-30.44l-42.94 -118.98c-8.4,-20.67 -9.41,-48.69 -23.19,-77.91l-45.05 -136.53c-8.52,-26.21 -18.53,-55.41 -26.35,-79.13 -8.45,-25.62 7.96,-31.85 -18.11,-71.47 -7.34,22.3 -1.98,25.21 4.64,52.32l-13.17 7.83z"/>
    <path class="fil3" d="M7576.87 3607.82c-21.54,-40.99 -195.33,-186.2 -254.46,-222.9 -294.83,-183 -573.67,-324.25 -927.06,-364.5 -118.34,-13.48 -400.7,-17 -510.43,14.61l219.46 54.41c74.49,15.47 139.64,37.36 218.68,56.93 88.01,21.77 329.26,108.48 421.34,143.11 34,12.78 70.81,24.72 102.97,36.53 17.57,6.46 29.13,14.24 49.56,22.03 17.99,6.86 32.36,12.68 54.57,20.3 141.04,48.38 274,103.03 412.84,158.02 33.04,13.08 186.26,82.19 212.53,81.46z"/>
    <path class="fil4" d="M4799.28 4489.98c-77.82,69.83 -165.36,217.63 -210.41,305.19 -29.73,57.8 -77.89,148.27 -100.96,210.97 -51.96,141.25 -59.97,130.31 -103.91,315.92 -16.82,71.03 -24.52,121.31 -35.35,193.68 -8.74,58.38 -24.57,368.91 -4.41,421.6l11.31 32.11c11.05,-13.94 7.98,-7.99 2.86,-31.6 1.57,-0.52 12.89,-4.36 13.81,-4.88 9.12,-5.25 4.08,-2.02 8.63,-7.16l-21.72 -73.26c11.83,3.3 11.98,7.32 26.81,19.2 8.55,6.85 1.01,-0.76 11.33,9.4 7.84,7.74 2.99,5.91 11.9,13.71 3.61,-17.86 -6.66,-28.69 -10.92,-49.07 -1.7,-8.09 -1.11,-6.29 -1.46,-13.26l-1.42 -19.25c-14.4,-60.52 14.53,0.12 -8.16,-82.56 -1.65,-5.96 -1.96,-4.39 -2.61,-11.62 -2.36,-26.41 24.99,-6.67 27.98,-42.53 2.89,-34.48 -6.44,-2.2 -3.97,-17.88 1.91,-12.14 -4.41,1.87 9.04,-10.98l6.06 -5.48c-7.63,-32.2 -8.89,-31.01 8.56,-57.01 13.43,-20 5.92,-8.42 12.19,-29.96 3.57,-12.21 4.9,-12.48 6.05,-20.39l17.53 -81.3c0.33,-1.06 0.91,-2.43 1.27,-3.46 0.35,-1.02 0.95,-2.39 1.3,-3.39l37.48 -123.15c33.47,-58.81 4.84,-22.86 26.06,-75.61 2.42,-6 5.83,-13.73 9.11,-19.77l26.88 -58.54c5.6,-17.35 1.72,-2.95 3.06,-22.99 2.04,-30.52 2.26,-1.96 8.86,-36.84 1.33,-7.04 0.09,-6.95 1.51,-11.38 5.34,-16.67 3.7,6.28 29.88,-60.77l4.17 -10.32c0.96,-2.17 3.27,-6.38 4.79,-9.73 3.08,-6.81 5.39,-13.96 7.71,-20.14l63.24 -154.4c1.55,-3.33 3.77,-8.38 4.48,-10.01 14.46,-32.86 41.81,-96.18 59.97,-122.51 36.35,-52.65 7.97,-34.79 37.59,-64.78 83.13,-84.12 39.37,-85.93 196.81,-213.28l73.26 -66.66 -21.69 6.39c8.82,-8.27 10.96,-8.91 23.54,-14.23 -16.26,-16.26 -10.67,-25.8 -17.48,-38.5 -6.19,-11.54 -12.49,-9.93 -23.87,-15.02 -32.99,18.72 -79.27,67.55 -110.72,94.56 -33.92,29.12 -67.97,66.38 -115.97,90.94z"/>
    <path class="fil5" d="M7576.91 3607.75c-26.32,0.73 -179.57,-68.28 -212.61,-81.37 -138.79,-54.95 -271.79,-109.66 -412.82,-158.07 -22.23,-7.58 -36.53,-13.44 -54.53,-20.26 -20.44,-7.82 -32,-15.55 -49.56,-22.06 -32.16,-11.8 -69.04,-23.78 -102.98,-36.56 -92.15,-34.6 -333.39,-121.27 -421.38,-143.08 -79.01,-19.53 -144.22,-41.45 -218.59,-56.9l-219.54 -54.46c109.74,-31.58 392.08,-28.08 510.5,-14.54 353.34,40.2 632.19,181.47 927.07,364.44 59.08,36.71 232.87,181.93 254.44,222.86zm-285.77 3779.32c-32.07,41.42 -440.01,197.94 -528.83,218.53 -53.39,12.3 -76.83,19.78 -136.01,34.12l-210.15 33.37c-269.23,29.19 -565.35,2.5 -824.27,-86.46 -64.54,-22.12 -133.72,-48.82 -200.38,-80.33 -21.96,-11.22 -40.69,-20.44 -66.9,-33.87 -14.72,-8.04 -29.22,-16.34 -43.39,-24.9l-27.25 -17.24c-73.75,-48.86 -222.37,-164.58 -268.78,-217.49 -26.44,-21.4 -73.4,-56.23 -84.24,-84.8 -49.9,-26.21 -243.01,-269.92 -275.01,-319.47 -39.64,-61.54 -67.07,-104.44 -101.35,-168.88 -89.03,-167.59 -76.49,-165.48 -129.72,-303.92 -20.94,-93.28 -43.38,-222.85 -43.31,-279.12 -5.78,-33.53 -17.97,-90.73 -7.31,-119.23 -20.11,-52.73 -4.32,-363.27 4.37,-421.62 10.84,-72.37 18.55,-122.64 35.35,-193.7 44.01,-185.67 52.01,-174.69 103.92,-315.9 23.13,-62.74 71.22,-153.19 101,-211.05 45.01,-87.5 132.58,-235.29 210.43,-305.13 47.92,-24.58 82.03,-61.78 115.96,-91 31.41,-26.94 77.74,-75.76 110.71,-94.5 16.03,-22.54 142.66,-115.66 171.81,-136.74 398.91,-289.69 873.75,-494.24 1373.11,-375.05 31.47,7.49 70.88,17.01 104.67,26.04 26.35,7.24 76.91,15.13 98.8,27.19 27.18,31.26 -70.09,111.91 -108.98,157.23 -26.8,31.28 -85.88,86.12 -132.76,140.66l-414.62 482.32 184.05 65.55c22.29,8.52 41.34,13.09 64.05,18.04 286.09,62.3 645.76,-1.77 914.61,-133.45 403.29,-197.48 478.67,-388.59 1068.99,-591.98 -9.83,-43.15 -43.53,-111.44 -59.31,-161.4 -55.44,-175.81 -94.43,-325.42 -135.05,-506.35 -50.79,-226.53 -102.94,-441.07 -163.33,-668.06 -82.07,-308.18 -162.23,-469.89 -366.05,-665.87 -68.03,-65.38 -277.63,-196.89 -322.96,-198.28 -12.77,52.99 86.67,897.36 58.1,963.18 -18.04,41.7 -94.87,88.47 -115.48,89.86 -15.72,0.9 -105.88,-39.13 -128.91,-48.1 -299.38,-116.62 -807.67,-118.24 -1195.02,-88.96 -502.6,38.1 -886.13,210.71 -1271.29,464.25 -221.54,145.96 -375.35,289.76 -557.46,475.74l-223.47 267.64c-14.9,18.06 -29.16,38.25 -38.51,59.1 -19.7,21.88 -32.48,44.36 -50.21,68.91 -8.31,11.49 -17.84,23.62 -25.56,35.36l-207.96 378.22c-60.63,134.28 -124.87,305.21 -162.24,443.92 -43.13,159.91 -45.91,197.38 -77.14,346.55 -46.47,221.4 -60.39,506.83 -40.62,754.93 36.05,451.88 147.65,853.87 373.84,1255.06 6.99,12.29 13.91,24.51 21.08,36.71l0 1.9c30.62,54.12 66.17,110.18 105.48,166.76 147.65,219.43 321.33,412.82 523.94,574.46 280.23,240.52 584.15,421.13 948.04,548.35 414.77,144.96 836.8,197.21 1259.49,129.82l167.25 -27.6c82.27,-9.45 244.67,-50.69 334.6,-69.67 90.45,-19.11 394.68,-131.86 487.86,-174.17 28.26,-12.88 52.42,-25.31 79.85,-37.37 25.24,-11.21 55.26,-22.29 77.01,-37.11 300.66,-251.68 232.52,-1255.82 -354.54,-975z"/>
   </g>
   <path class="fil6" d="M5686.81 3067.61c0,80.64 -59.82,130.03 -178.13,148.28 -167.71,25.98 -265.3,42.94 -293.87,53.26 -91.04,39.07 -136.56,111.87 -136.56,222.35l0 1196.39c0,150.85 -194.99,310.73 -585.16,481.11 -439.46,191.13 -932.37,286.04 -1479.74,286.04 -795.81,0 -1459.01,-237.94 -1989.52,-712.6 -537.05,-482.41 -806.22,-1101.38 -806.22,-1855.53 0,-769.82 278.2,-1409.62 833.49,-1920.59 537.06,-492.91 1184.59,-738.68 1940.13,-738.68 579.9,0 1074.1,70.22 1479.75,209.37 299.11,101.46 455.12,204.21 468.12,305.57 24.69,192.5 37.78,478.54 37.78,857 0,84.49 -52.07,128.72 -157.39,133.89 -122.19,5.25 -196.37,-29.86 -224.94,-102.75 -139.14,-378.37 -335.52,-651.41 -587.73,-817.92 -252.31,-166.42 -598.24,-249.63 -1039,-249.63 -608.55,0 -1083.22,187.24 -1426.48,560.45 -352.37,387.49 -527.92,944.08 -527.92,1668.38 0,698.21 202.82,1259.97 608.56,1687.82 392.65,416.14 897.17,624.13 1516.14,624.13 317.27,0 612.52,-57.23 885.56,-171.59 261.34,-109.29 391.46,-219.77 391.46,-331.65l0 -795.8c0,-188.54 -37.78,-325.11 -114.46,-409.61 -65.05,-76.67 -195.08,-144.31 -390.16,-202.82 -144.31,-42.94 -213.23,-94.91 -205.4,-156.01 10.41,-65.06 27.27,-105.32 51.97,-120.99 23.41,-15.58 84.6,-16.87 183.38,-3.88 540.92,67.64 1064.98,72.8 1574.75,15.57 28.56,-2.57 50.68,-3.86 68.83,-3.86 68.94,0 102.76,48.1 102.76,144.3z"/>
  </g>
 </g>
</svg>
