<svg width="216" height="50" viewBox="0 0 216 50" fill="none" xmlns="http://www.w3.org/2000/svg">
<path d="M30.63 25.8958C30.63 26.3474 30.2951 26.624 29.6324 26.7262C28.6931 26.8717 28.1466 26.9667 27.9866 27.0245C27.4767 27.2433 27.2218 27.651 27.2218 28.2698V34.9701C27.2218 35.8149 26.1298 36.7103 23.9447 37.6645C21.4835 38.7349 18.723 39.2664 15.6575 39.2664C11.2006 39.2664 7.48635 37.934 4.51526 35.2756C1.50751 32.5739 7.62939e-06 29.1074 7.62939e-06 24.8838C7.62939e-06 20.5724 1.55811 16.9893 4.668 14.1276C7.67576 11.3671 11.3023 9.99068 15.5336 9.99068C18.7813 9.99068 21.549 10.384 23.8208 11.1633C25.4961 11.7314 26.3698 12.3069 26.4425 12.8746C26.5808 13.9526 26.6541 15.5546 26.6541 17.6741C26.6541 18.1474 26.3625 18.3951 25.7727 18.424C25.0883 18.4534 24.6729 18.2568 24.5129 17.8485C23.7336 15.7295 22.6338 14.2004 21.2214 13.2678C19.8083 12.3358 17.8709 11.8698 15.4025 11.8698C11.9943 11.8698 9.336 12.9184 7.41356 15.0085C5.44005 17.1787 4.45695 20.2958 4.45695 24.3522C4.45695 28.2626 5.59279 31.4086 7.86517 33.8048C10.0641 36.1354 12.8897 37.3002 16.3563 37.3002C18.1331 37.3002 19.7866 36.9797 21.3158 36.3393C22.7794 35.7271 23.5081 35.1084 23.5081 34.4818V30.025C23.5081 28.9691 23.2965 28.2043 22.8671 27.731C22.5028 27.3016 21.7746 26.9228 20.682 26.5951C19.8738 26.3546 19.4878 26.0635 19.5317 25.7214C19.59 25.357 19.6844 25.1315 19.8228 25.0438C19.9538 24.9565 20.2965 24.9493 20.8498 25.0221C23.8792 25.4009 26.8141 25.4298 29.6691 25.1093C29.8291 25.0948 29.9529 25.0876 30.0546 25.0876C30.4406 25.0876 30.63 25.357 30.63 25.8958ZM47.5766 23.5218C47.5766 25.2476 47.0811 26.1146 46.0835 26.1146C45.9236 26.1146 45.4065 26.0125 44.525 25.8086C43.644 25.6048 42.9958 25.5026 42.5809 25.5026C40.9857 25.5026 40.192 26.5735 40.192 28.7214V35.0062C40.192 35.7422 40.4469 36.2665 40.964 36.5792C41.2623 36.7686 42.0127 37.0163 43.2069 37.3296C43.8479 37.4823 44.1683 37.7301 44.1683 38.0578C44.1683 38.4438 44.1173 38.6766 44.0079 38.7571C43.899 38.8371 43.6368 38.8515 43.2069 38.8149C40.0825 38.5021 37.6069 38.4872 35.7934 38.7788C35.2252 38.866 34.8614 38.866 34.7009 38.7643C34.577 38.6766 34.5115 38.4294 34.5115 38.0139C34.5115 37.6279 34.9047 37.3151 35.6912 37.0891C36.4777 36.8636 36.871 36.186 36.871 35.0501V28.2192C36.871 27.3233 36.7549 26.719 36.5216 26.4057C36.2811 26.0997 35.6407 25.6775 34.5842 25.1532L34.4608 25.0876C34.1765 24.9421 34.031 24.7455 34.031 24.4833C34.031 24.1989 34.322 23.9589 34.9047 23.7551C35.8806 23.4124 36.7765 22.9319 37.5847 22.3132C38.2473 21.7888 38.6772 21.5266 38.8594 21.5266C39.3766 21.5266 39.6821 21.9705 39.7843 22.852C39.9154 23.9807 40.0609 24.5416 40.2358 24.5416C40.2503 24.5416 41.044 24.0023 42.6243 22.9319C43.6657 22.2254 44.8016 21.876 46.0397 21.876C47.0667 21.876 47.5766 22.4221 47.5766 23.5218ZM66.3212 35.0789C66.3212 35.691 65.4985 36.4481 63.8455 37.3585C61.9665 38.3711 60.0368 38.8732 58.0556 38.8732C55.9072 38.8732 54.1014 38.1672 52.6378 36.7614C51.072 35.2684 50.2855 33.2732 50.2855 30.7898C50.2855 27.9715 51.1592 25.7064 52.9071 24.0023C54.5457 22.4076 56.5554 21.6139 58.9298 21.6139C60.3352 21.6139 61.6532 22.0654 62.8768 22.9609C63.9694 23.7551 64.6976 24.665 65.0542 25.692C65.1853 26.0491 65.3747 26.2457 65.6369 26.2891C66.0084 26.3619 66.1901 26.6167 66.1901 27.0466C66.1901 27.6366 65.4913 28.1464 64.0927 28.5614L54.2614 31.4453C54.9024 34.8245 56.6431 36.5137 59.4759 36.5137C61.1145 36.5137 62.9785 35.9238 65.0759 34.7368C65.3892 34.5546 65.6952 34.4602 65.9934 34.4602C66.2123 34.4602 66.3212 34.664 66.3212 35.0789ZM61.2527 26.5368C61.2527 25.7503 60.9395 25.0582 60.3062 24.4683C59.6725 23.8784 58.8932 23.5802 57.9684 23.5802C55.3539 23.5802 54.0431 25.4515 54.0431 29.2023V29.7117L59.8474 28.0153C60.7867 27.7382 61.2527 27.2505 61.2527 26.5368ZM85.3285 35.0789C85.3285 35.691 84.5058 36.4481 82.8528 37.3585C80.9737 38.3711 79.0441 38.8732 77.0629 38.8732C74.9145 38.8732 73.1087 38.1672 71.6451 36.7614C70.0792 35.2684 69.2927 33.2732 69.2927 30.7898C69.2927 27.9715 70.1665 25.7064 71.9144 24.0023C73.553 22.4076 75.5627 21.6139 77.9371 21.6139C79.3425 21.6139 80.6605 22.0654 81.8841 22.9609C82.9767 23.7551 83.7049 24.665 84.0614 25.692C84.1925 26.0491 84.382 26.2457 84.6441 26.2891C85.0157 26.3619 85.1974 26.6167 85.1974 27.0466C85.1974 27.6366 84.4986 28.1464 83.1 28.5614L73.2686 31.4453C73.9097 34.8245 75.6504 36.5137 78.4831 36.5137C80.1217 36.5137 81.9858 35.9238 84.0832 34.7368C84.3964 34.5546 84.7025 34.4602 85.0007 34.4602C85.2195 34.4602 85.3285 34.664 85.3285 35.0789ZM80.26 26.5368C80.26 25.7503 79.9467 25.0582 79.3135 24.4683C78.6798 23.8784 77.9005 23.5802 76.9756 23.5802C74.3612 23.5802 73.0503 25.4515 73.0503 29.2023V29.7117L78.8547 28.0153C79.794 27.7382 80.26 27.2505 80.26 26.5368ZM110.891 38.2689C110.891 38.7132 110.57 38.9171 109.929 38.8732C106.877 38.7132 104.569 38.6838 102.989 38.786C102.181 38.8443 101.743 38.7421 101.671 38.4872C101.641 38.4 101.627 38.2761 101.627 38.1161C101.627 37.8317 102.035 37.5695 102.858 37.3441C103.608 37.133 103.986 36.3976 103.986 35.1445V29.4718C103.986 26.2163 102.574 24.5849 99.7405 24.5849C98.4736 24.5849 97.301 24.8838 96.2162 25.4881C95.1892 26.0708 94.6793 26.6823 94.6793 27.3088V35.1084C94.6793 36.4409 95.553 37.1913 97.301 37.3441C97.9709 37.4024 98.3058 37.6134 98.3058 37.985C98.3058 38.3488 98.2114 38.5604 98.0292 38.6332C97.942 38.6621 97.7015 38.6693 97.301 38.6549C95.0654 38.5677 92.7641 38.6838 90.3901 39.0042C89.8731 39.077 89.5525 39.0992 89.4287 39.0698C89.1448 39.0115 88.9988 38.786 88.9988 38.4C88.9988 38.0578 89.4071 37.759 90.2225 37.519C90.9801 37.2929 91.3584 36.3464 91.3584 34.6857V28.2265C91.3584 27.1339 91.2128 26.4346 90.9289 26.1363C90.7324 25.9252 90.0697 25.6264 88.9483 25.2404C88.6639 25.1388 88.5184 24.9421 88.5184 24.6361C88.5184 24.3522 88.8094 24.0973 89.3921 23.8862C90.1858 23.5874 91.0673 23.1141 92.0138 22.4659C92.8153 21.9271 93.3246 21.6577 93.5506 21.6577C93.9367 21.6577 94.1917 22.0943 94.3227 22.9686C94.4465 23.8423 94.6283 24.2794 94.8542 24.2794C94.7376 24.2794 95.4658 23.864 97.0317 23.0341C98.5902 22.2038 100.134 21.7888 101.656 21.7888C105.341 21.7888 107.191 23.8862 107.22 28.0732L107.263 34.9407C107.263 35.8221 107.49 36.4553 107.948 36.8342C108.29 37.1185 108.946 37.3657 109.929 37.5624C110.57 37.6934 110.891 37.9267 110.891 38.2689ZM165.727 22.6914C165.727 23.0775 165.421 23.4197 164.802 23.704C164.183 23.9879 163.71 24.5266 163.382 25.3204C161.925 28.7942 160.047 32.7633 157.738 37.2419C157.206 38.1961 156.478 39.6014 155.553 41.4588C154.621 43.3156 153.208 45.7407 151.307 48.7412C150.681 49.7387 149.829 50.1393 148.744 49.9576C147.805 49.8188 147.018 49.5494 146.385 49.1634C145.751 48.7701 145.467 48.399 145.54 48.0419C145.671 47.4448 146.093 47.1171 146.822 47.0443C148.074 46.9277 148.89 46.8188 149.276 46.7022C149.742 46.5494 150.15 46.2578 150.492 45.8279C151.213 44.8887 152.102 43.4906 153.158 41.6259C154.141 39.8857 154.628 38.9098 154.628 38.6988C154.628 38.5527 153.74 36.8414 151.963 33.557C149.56 29.1218 148.103 26.4273 147.594 25.4809C147.12 24.5705 146.618 24.039 146.079 23.9006C145.169 23.6601 144.71 23.3541 144.71 22.9831C144.71 22.4515 145.001 22.2038 145.584 22.2476C148.584 22.4732 151.337 22.386 153.842 21.9855C154.279 21.9122 154.497 22.051 154.497 22.4004C154.497 22.8953 154.155 23.2308 153.456 23.3979C152.4 23.6529 151.876 24.1189 151.876 24.7888C151.876 24.9127 151.905 25.051 151.963 25.1893C152.655 26.8279 153.594 28.8019 154.774 31.103C155.881 33.2804 156.485 34.373 156.58 34.373C156.711 34.373 157.185 33.477 157.993 31.7002C158.94 29.6245 159.813 27.4399 160.629 25.1532C160.644 25.0948 160.651 25.0293 160.651 24.9637C160.651 24.2867 160.309 23.8129 159.624 23.5435C158.83 23.2452 158.43 22.9902 158.43 22.7792C158.43 22.291 158.678 22.0799 159.18 22.1382C161.212 22.4515 163.105 22.4804 164.853 22.2254C165.268 22.1671 165.516 22.1671 165.596 22.2254C165.683 22.2837 165.727 22.4365 165.727 22.6914ZM184.042 35.9094C184.042 36.4337 183.307 37.0746 181.843 37.8317C180.256 38.6404 178.682 39.0482 177.131 39.0482C174.713 39.0482 172.74 38.3638 171.203 36.9947C169.594 35.5455 168.793 33.5792 168.793 31.103C168.793 28.4375 169.718 26.2235 171.567 24.4611C173.373 22.7354 175.588 21.876 178.216 21.876C179.811 21.876 181.195 22.1016 182.375 22.5603C183.46 22.9831 183.999 23.4418 183.999 23.9223C183.999 24.25 183.729 24.7527 183.198 25.4154C182.659 26.0852 182.222 26.4202 181.88 26.4202C181.668 26.4202 181.18 26.1146 180.408 25.5026C178.974 24.3666 177.852 23.7985 177.044 23.7985C175.77 23.7985 174.713 24.2794 173.891 25.2476C173.024 26.3035 172.594 27.7532 172.594 29.6029C172.594 31.8385 173.221 33.6226 174.473 34.9629C175.616 36.1715 176.986 36.7759 178.595 36.7759C180.19 36.7759 181.69 36.3393 183.103 35.4578C183.227 35.3778 183.394 35.3339 183.605 35.3339C183.897 35.3339 184.042 35.5233 184.042 35.9094ZM197.537 38.0284C197.537 38.6038 197.216 38.8587 196.576 38.786C194.617 38.611 192.191 38.6404 189.293 38.8732C188.71 38.9315 188.347 38.9171 188.215 38.8299C188.077 38.7421 188.012 38.5093 188.012 38.1234C188.012 37.7811 188.398 37.4896 189.169 37.2568C189.941 37.0163 190.327 36.3171 190.327 35.1523V15.8461C190.327 14.6881 190.16 13.8433 189.825 13.3045C189.49 12.7657 188.9 12.343 188.062 12.0447C187.618 11.8914 187.4 11.6659 187.4 11.382C187.4 10.9594 187.72 10.6389 188.361 10.4278C189.323 10.1145 190.327 9.62688 191.362 8.97146C192.214 8.4543 192.76 8.19934 192.986 8.19934C193.517 8.19934 193.779 8.56376 193.779 9.28473C193.779 9.23358 193.75 9.94015 193.692 11.4181C193.648 12.8312 193.634 14.2148 193.648 15.584L193.736 34.6351C193.736 35.5017 193.947 36.1277 194.376 36.5209C194.806 36.9141 195.535 37.1691 196.576 37.3002C197.216 37.373 197.537 37.6134 197.537 38.0284ZM215.852 35.0789C215.852 35.691 215.03 36.4481 213.377 37.3585C211.498 38.3711 209.568 38.8732 207.587 38.8732C205.438 38.8732 203.632 38.1672 202.169 36.7614C200.603 35.2684 199.817 33.2732 199.817 30.7898C199.817 27.9715 200.69 25.7064 202.438 24.0023C204.077 22.4076 206.086 21.6139 208.461 21.6139C209.866 21.6139 211.184 22.0654 212.408 22.9609C213.5 23.7551 214.229 24.665 214.585 25.692C214.716 26.0491 214.906 26.2457 215.168 26.2891C215.539 26.3619 215.721 26.6167 215.721 27.0466C215.721 27.6366 215.022 28.1464 213.624 28.5614L203.792 31.4453C204.433 34.8245 206.174 36.5137 209.007 36.5137C210.645 36.5137 212.509 35.9238 214.607 34.7368C214.92 34.5546 215.226 34.4602 215.524 34.4602C215.743 34.4602 215.852 34.664 215.852 35.0789ZM210.784 26.5368C210.784 25.7503 210.471 25.0582 209.837 24.4683C209.204 23.8784 208.424 23.5802 207.499 23.5802C204.885 23.5802 203.574 25.4515 203.574 29.2023V29.7117L209.378 28.0153C210.318 27.7382 210.784 27.2505 210.784 26.5368Z" fill="#201E1E"/>
<path fill-rule="evenodd" clip-rule="evenodd" d="M146.759 37.9138C146.599 37.8633 140.977 40.1564 134.317 39.4068C133.779 39.2434 132.075 38.5908 131.62 38.3356C131.172 38.0829 130.337 37.6561 129.955 37.3916L129.15 36.8891C127.123 35.609 125.541 33.8293 124.332 31.6856C123.065 29.4384 122.44 27.1869 122.238 24.6566C122.127 23.2671 122.205 21.6686 122.466 20.4286C122.641 19.593 122.656 19.3835 122.898 18.4878C123.107 17.7109 123.467 16.7537 123.806 16.0014L124.971 13.8832C125.014 13.8176 125.068 13.7498 125.114 13.6855C125.213 13.5477 125.285 13.422 125.395 13.2991C125.448 13.1829 125.527 13.0696 125.611 12.9689L126.863 11.4696C127.882 10.428 128.744 9.62267 129.985 8.80565C132.142 7.38511 134.29 6.41835 137.104 6.20544C139.274 6.04137 142.121 6.05016 143.797 6.7035C143.926 6.75372 144.431 6.97802 144.519 6.9724C144.634 6.96524 145.065 6.70304 145.166 6.4698C145.326 6.10076 144.769 1.37222 144.84 1.07513C145.094 1.08291 146.268 1.81944 146.649 2.18555C147.791 3.28334 148.239 4.18918 148.699 5.91497C149.037 7.18615 149.329 8.38793 149.614 9.65641C149.841 10.6696 150.06 11.5076 150.37 12.4923C150.458 12.7718 150.647 13.1544 150.702 13.3962C147.396 14.5352 146.974 15.6054 144.716 16.7112C143.21 17.4487 141.196 17.8077 139.593 17.4588C139.466 17.4311 139.359 17.4055 139.235 17.3576L138.204 16.9907L140.526 14.2895C140.789 13.9843 141.119 13.6768 141.269 13.5021C141.487 13.2483 142.032 12.7963 141.88 12.6213C141.757 12.5538 141.474 12.5094 141.326 12.4693C141.137 12.4183 140.917 12.3653 140.74 12.3231C137.944 11.6557 135.284 12.8011 133.05 14.4231C132.887 14.5414 132.177 15.0626 132.088 15.1893C132.152 15.2178 132.187 15.2087 132.222 15.2735C132.26 15.3444 132.228 15.3979 132.319 15.4891C132.249 15.5188 132.237 15.5225 132.188 15.5686L132.309 15.533L132.69 15.2354C133.118 14.9449 133.553 14.5902 134.026 14.3541C135.689 13.5221 136.675 13.1135 138.578 12.9795C139.105 12.9425 139.637 13.0053 140.149 13.0369C140.297 13.046 140.582 13.0293 140.678 13.0697C140.739 13.2486 140.439 13.513 140.326 13.6324C139.529 14.4811 138.756 15.3646 137.939 16.1929L137.024 17.2501C137.082 17.4616 137.129 17.5117 137.302 17.5901L137.701 17.7445C137.837 17.7988 137.93 17.8428 138.077 17.8944C138.23 17.9481 138.342 17.9786 138.481 18.0338C138.671 18.1091 139.128 18.207 139.313 18.2384C139.471 18.265 139.578 18.2993 139.746 18.3241C141.039 18.5151 143.129 18.2439 144.31 17.7699C145.716 17.2059 145.712 17.1451 146.944 16.3777C147.784 15.8541 148.568 15.3386 149.531 14.9124C150.253 14.5926 150.872 14.4212 151.638 14.1904C151.652 13.5128 150.499 8.7193 150.328 8.01558C149.77 5.72448 149.537 4.20359 148.126 2.37673C147.611 1.70983 147 1.17072 146.307 0.696542C146.044 0.517223 145.577 0.177842 145.263 0.0866416C145.072 0.0314132 144.827 -0.0244314 144.623 0.0112321C144.256 0.0748565 144.198 0.137865 144.155 0.428334C144.028 1.29212 144.177 2.31742 144.238 3.19338C144.269 3.63828 144.477 5.48601 144.454 5.88239C144.426 6.38792 143.301 5.77586 142.769 5.63606C141.684 5.35083 140.344 5.30469 139.183 5.36092C138.875 5.37586 138.555 5.3811 138.232 5.39389C137.913 5.40629 137.561 5.45882 137.244 5.48886C134.828 5.71886 133.401 5.98068 131.237 7.12314L130.022 7.86568L128.254 9.24231C127.808 9.61119 127.385 10.0353 126.991 10.4391C126.354 11.092 125.784 11.8051 125.229 12.5112C124.93 12.8928 124.701 13.3097 124.417 13.6988C124.123 14.1031 123.446 15.3559 123.221 15.8683C123.11 16.1191 122.999 16.3517 122.885 16.6039C122.675 17.071 122.463 17.6759 122.319 18.1785C122.283 18.3069 122.253 18.451 122.213 18.578C122.022 19.177 121.723 20.8621 121.662 21.5512C121.523 23.1217 121.468 24.7241 121.786 26.2873C121.979 27.2395 121.973 27.3851 122.252 28.3879C122.599 29.6356 123.211 31.1764 123.886 32.256C124.057 32.5287 124.221 32.8114 124.384 33.0815C124.537 33.3344 124.745 33.5954 124.912 33.8427C125.238 34.3221 125.642 34.7774 126.036 35.1947C126.328 35.5037 126.614 35.8331 126.943 36.1004L127.583 36.6515C127.69 36.7332 127.804 36.8185 127.906 36.9019C128.283 37.2079 128.65 37.5077 129.079 37.741C129.18 37.7955 129.171 37.8083 129.262 37.8677C129.643 38.1149 129.956 38.28 130.332 38.4729C130.404 38.5101 130.45 38.5361 130.511 38.5702C130.658 38.6519 130.367 38.4998 130.546 38.5896L131.055 38.831C131.786 39.1419 132.266 39.3382 133.011 39.5752L133.435 39.7204L133.803 39.8466C143.845 41.3712 146.519 38.2006 146.759 37.9138Z" fill="#F0E9D2"/>
<path fill-rule="evenodd" clip-rule="evenodd" d="M128.311 25.0022C128.31 25.4168 128.529 26.5426 128.657 26.9805C128.843 27.6175 129.166 28.2676 129.48 28.8179C130.24 30.1494 131.387 31.3568 132.628 32.2293L133.635 32.8661C133.937 33.0245 134.063 33.0798 134.333 33.2254C139.125 35.8047 141.548 34.8858 144.867 32.4106C144.783 32.3763 140.686 34.6326 135.214 32.7781L134.016 32.2436C133.949 32.2097 133.972 32.2151 133.916 32.1789L132.441 31.2582L131.674 30.6468C131.667 30.6412 131.65 30.6238 131.644 30.6178C131.463 30.4428 131.256 30.2933 131.125 30.1329C131.092 30.0924 131.068 30.0472 131.031 30.0104C131.011 29.9906 130.977 29.9706 130.938 29.9345C130.933 29.9304 130.927 29.925 130.922 29.9207L130.755 29.7193C130.481 29.4063 130.57 29.6079 130.48 29.3798C130.394 29.1631 130.121 28.9639 129.972 28.6659L129.889 28.5241C129.844 28.4561 129.844 28.4444 129.816 28.3587L129.699 28.3459L129.511 27.9146C129.5 27.8811 129.489 27.8397 129.474 27.8083L129.385 27.6762C129.381 27.6688 129.379 27.6619 129.374 27.6544C129.342 27.5907 129.358 27.6065 129.318 27.5465C129.299 27.517 129.28 27.5372 129.23 27.3761L128.99 26.7097C128.943 26.5939 128.937 26.437 128.86 26.2734L128.608 25.5087C128.56 25.362 128.504 25.1984 128.46 25.0656C128.413 24.9221 128.505 24.8872 128.359 24.6654C128.317 24.7903 128.347 24.8065 128.385 24.9583L128.311 25.0022Z" fill="#DBDCC5"/>
<path fill-rule="evenodd" clip-rule="evenodd" d="M146.374 11.2877C146.253 11.0581 145.28 10.2449 144.949 10.0394C143.298 9.01449 141.736 8.22343 139.757 7.99797C139.094 7.92248 137.513 7.90284 136.898 8.07985L138.127 8.38457C138.545 8.47114 138.91 8.59377 139.352 8.7033C139.845 8.82532 141.196 9.31089 141.712 9.50485C141.902 9.57641 142.108 9.64327 142.289 9.70943C142.387 9.74563 142.452 9.78923 142.566 9.83283C142.667 9.87127 142.747 9.90377 142.872 9.94644C143.662 10.2174 144.406 10.5235 145.184 10.8315C145.369 10.9047 146.227 11.2918 146.374 11.2877Z" fill="#ECEACD"/>
<path fill-rule="evenodd" clip-rule="evenodd" d="M130.818 16.2281C130.383 16.6191 129.892 17.447 129.64 17.9373C129.473 18.261 129.204 18.7677 129.075 19.1188C128.784 19.9099 128.739 19.8487 128.493 20.8881C128.398 21.2859 128.355 21.5676 128.295 21.9728C128.246 22.2998 128.157 24.0389 128.27 24.3339L128.333 24.5138C128.395 24.4358 128.378 24.469 128.349 24.3368C128.358 24.3339 128.421 24.3125 128.427 24.3094C128.478 24.2801 128.449 24.2982 128.475 24.2694L128.353 23.8591C128.42 23.8776 128.42 23.9001 128.503 23.9666C128.551 24.005 128.509 23.9624 128.567 24.0194C128.611 24.0627 128.584 24.0524 128.633 24.0961C128.654 23.996 128.596 23.9354 128.572 23.8213C128.563 23.776 128.566 23.786 128.564 23.747L128.556 23.6392C128.476 23.3002 128.638 23.6399 128.51 23.1768C128.501 23.1434 128.5 23.1522 128.496 23.1118C128.483 22.9638 128.636 23.0744 128.653 22.8736C128.669 22.6805 128.617 22.8613 128.63 22.7734C128.641 22.7054 128.606 22.7839 128.681 22.7119L128.715 22.6812C128.672 22.5009 128.665 22.5076 128.763 22.362C128.838 22.25 128.796 22.3148 128.831 22.1942C128.851 22.1257 128.859 22.1243 128.865 22.0799L128.963 21.6246C128.965 21.6187 128.968 21.611 128.97 21.6053C128.972 21.5996 128.976 21.5919 128.978 21.5862L129.188 20.8966C129.375 20.5672 129.215 20.7686 129.334 20.4732C129.347 20.4395 129.366 20.3962 129.385 20.3624L129.535 20.0346C129.566 19.9375 129.545 20.018 129.552 19.9058C129.564 19.7349 129.565 19.8949 129.602 19.6995C129.609 19.6601 129.602 19.6606 129.61 19.6358C129.64 19.5423 129.631 19.671 129.778 19.2954L129.801 19.2376C129.806 19.2255 129.819 19.2019 129.828 19.1831C129.845 19.145 129.858 19.105 129.871 19.0704L130.225 18.2057C130.234 18.187 130.246 18.1587 130.25 18.1496C130.331 17.9656 130.484 17.6109 130.586 17.4635C130.79 17.1687 130.631 17.2686 130.797 17.1007C131.262 16.6295 131.017 16.6194 131.899 15.9062L132.309 15.5328L132.188 15.5686C132.237 15.5224 132.249 15.5187 132.319 15.4889C132.228 15.398 132.26 15.3444 132.222 15.2733C132.187 15.2087 132.152 15.2177 132.088 15.1892C131.903 15.294 131.644 15.5675 131.468 15.7188C131.278 15.8819 131.087 16.0906 130.818 16.2281Z" fill="#DBDDCA"/>
<path fill-rule="evenodd" clip-rule="evenodd" d="M146.374 11.2873C146.227 11.2914 145.369 10.9049 145.184 10.8316C144.406 10.5238 143.661 10.2174 142.872 9.9463C142.747 9.90385 142.667 9.87112 142.566 9.83291C142.452 9.78908 142.387 9.74579 142.289 9.70936C142.109 9.64319 141.902 9.5761 141.712 9.50455C141.196 9.31082 139.845 8.8254 139.352 8.70323C138.91 8.59385 138.544 8.47115 138.128 8.38465L136.898 8.07962C137.513 7.90269 139.094 7.92233 139.757 7.99813C141.736 8.22328 143.298 9.0145 144.949 10.0392C145.28 10.2448 146.253 11.0581 146.374 11.2873ZM144.774 32.4532C144.594 32.6852 142.31 33.5617 141.812 33.6771C141.513 33.746 141.382 33.7879 141.05 33.8681L139.874 34.0551C138.366 34.2185 136.707 34.069 135.257 33.5708C134.896 33.447 134.508 33.2974 134.135 33.121C134.012 33.0581 133.907 33.0065 133.76 32.9313C133.678 32.8863 133.597 32.8397 133.517 32.7918L133.365 32.6952C132.952 32.4216 132.119 31.7735 131.859 31.4772C131.711 31.3574 131.448 31.1623 131.388 31.0023C131.108 30.8555 130.027 29.4906 129.847 29.2132C129.625 28.8685 129.472 28.6282 129.28 28.2673C128.781 27.3288 128.851 27.3406 128.553 26.5653C128.436 26.0428 128.31 25.3171 128.311 25.002C128.278 24.8143 128.21 24.4939 128.27 24.3343C128.157 24.0389 128.246 22.2998 128.294 21.9731C128.355 21.5678 128.398 21.2861 128.492 20.8882C128.739 19.8484 128.784 19.9099 129.074 19.1191C129.204 18.7677 129.473 18.2611 129.64 17.9371C129.892 17.447 130.383 16.6193 130.819 16.2282C131.087 16.0905 131.278 15.8822 131.468 15.7186C131.644 15.5677 131.903 15.2942 132.088 15.1893C132.178 15.0631 132.887 14.5416 133.05 14.4235C135.284 12.8012 137.944 11.6556 140.74 12.3231C140.916 12.3649 141.137 12.4183 141.326 12.4689C141.474 12.5094 141.757 12.5537 141.88 12.6211C142.032 12.7963 141.487 13.2479 141.269 13.5018C141.119 13.6769 140.788 13.9841 140.526 14.2895L138.204 16.9907L139.234 17.3578C139.359 17.4055 139.466 17.4311 139.593 17.4588C141.196 17.8078 143.21 17.449 144.715 16.7114C146.974 15.6055 147.396 14.5352 150.702 13.3961C150.647 13.1545 150.459 12.772 150.37 12.4922C150.06 11.5076 149.841 10.6697 149.614 9.65644C149.329 8.38773 149.037 7.18618 148.699 5.91501C148.239 4.18906 147.791 3.28338 146.649 2.18574C146.268 1.81963 145.094 1.0831 144.84 1.07532C144.769 1.37203 145.326 6.10095 145.166 6.4696C145.065 6.70307 144.634 6.96512 144.519 6.97282C144.431 6.9779 143.926 6.75368 143.797 6.70346C142.12 6.05034 139.274 6.04125 137.104 6.20532C134.29 6.41861 132.142 7.3853 129.985 8.80529C128.744 9.62263 127.882 10.428 126.863 11.4696L125.611 12.9685C125.528 13.0697 125.448 13.1827 125.395 13.2995C125.285 13.4221 125.213 13.5479 125.114 13.6854C125.068 13.7498 125.014 13.8177 124.971 13.8835L123.806 16.0017C123.467 16.7537 123.107 17.7109 122.898 18.4878C122.656 19.3833 122.641 19.5932 122.466 20.4286C122.205 21.6686 122.127 23.2671 122.238 24.6566C122.44 27.1873 123.065 29.4387 124.332 31.6855C124.371 31.7544 124.41 31.8228 124.45 31.8911V31.9017C124.621 32.2048 124.821 32.5188 125.041 32.8357C125.868 34.0646 126.84 35.1476 127.975 36.0529C129.544 37.3999 131.246 38.4114 133.284 39.1239C135.607 39.9357 137.971 40.2283 140.338 39.851L141.275 39.6964C141.736 39.6435 142.645 39.4125 143.149 39.3062C143.655 39.1992 145.359 38.5677 145.881 38.3308C146.039 38.2586 146.175 38.189 146.328 38.1215C146.469 38.0587 146.638 37.9966 146.759 37.9136C148.443 36.5042 148.062 30.8805 144.774 32.4532Z" fill="#157943"/>
</svg>
