<svg width="18" height="20" viewBox="0 0 18 20" fill="none" xmlns="http://www.w3.org/2000/svg">
<path d="M9 20C7.75263 20 6.58421 19.7674 5.49474 19.3023C4.40526 18.8372 3.45395 18.2054 2.64079 17.407C1.82763 16.6085 1.18421 15.6744 0.710526 14.6047C0.236842 13.5349 0 12.3876 0 11.1628C0 9.93798 0.236842 8.7907 0.710526 7.72093C1.18421 6.65116 1.82763 5.71705 2.64079 4.9186C3.45395 4.12015 4.40526 3.48837 5.49474 3.02326C6.58421 2.55814 7.75263 2.32558 9 2.32558V0L12.7895 3.72093L9 7.44186V5.11628C7.29474 5.11628 5.84211 5.70543 4.64211 6.88372C3.44211 8.06202 2.84211 9.48837 2.84211 11.1628C2.84211 12.186 3.08289 13.1357 3.56447 14.0116C4.04605 14.8876 4.68947 15.5969 5.49474 16.1395C5.74737 15.7054 6.12237 15.3372 6.61974 15.0349C7.11711 14.7326 7.68947 14.5426 8.33684 14.4651C8.28947 14.1395 8.22632 13.814 8.14737 13.4884C8.06842 13.1628 7.97368 12.8605 7.86316 12.5814C7.68947 12.7209 7.5 12.8295 7.29474 12.907C7.08947 12.9845 6.86842 13.0233 6.63158 13.0233C6.11053 13.0233 5.66447 12.8411 5.29342 12.4767C4.92237 12.1124 4.73684 11.6744 4.73684 11.1628V10.2326C4.73684 9.96899 4.69342 9.72093 4.60658 9.48837C4.51974 9.25581 4.40526 9.03876 4.26316 8.83721C5.05263 8.82171 5.75526 8.89147 6.37105 9.04651C6.9079 9.18605 7.39737 9.41473 7.83947 9.73256C8.28158 10.0504 8.51053 10.5271 8.52632 11.1628C8.52632 11.3023 8.51447 11.4302 8.49079 11.5465C8.46711 11.6628 8.42368 11.7829 8.36053 11.907C8.15526 11.7519 7.95 11.6124 7.74474 11.4884C7.53947 11.3643 7.32632 11.2558 7.10526 11.1628C7.37368 11.3643 7.68158 11.6744 8.02895 12.093C8.37632 12.5116 8.7 13.0078 9 13.5814C9.31579 12.8217 9.71053 12.0736 10.1842 11.3372C10.6579 10.6008 11.2105 9.92248 11.8421 9.30233C11.4789 9.55039 11.1316 9.81395 10.8 10.093C10.4684 10.3721 10.1447 10.6667 9.82895 10.9767C9.71842 10.8062 9.63158 10.6163 9.56842 10.407C9.50526 10.1977 9.47368 9.9845 9.47368 9.76744C9.47368 9.11628 9.70263 8.56589 10.1605 8.11628C10.6184 7.66667 11.1789 7.44186 11.8421 7.44186H12.7895C13.1526 7.44186 13.4526 7.39535 13.6895 7.30233C13.9263 7.2093 14.1237 7.10078 14.2816 6.97674C14.4553 6.83721 14.5895 6.68217 14.6842 6.51163C14.7474 7.55039 14.6921 8.48062 14.5184 9.30233C14.3763 10 14.1079 10.6395 13.7132 11.2209C13.3184 11.8023 12.6947 12.093 11.8421 12.093C11.6053 12.093 11.3803 12.062 11.1671 12C10.9539 11.938 10.7605 11.8527 10.5868 11.7442C10.4763 12.0388 10.35 12.4302 10.2079 12.9186C10.0658 13.407 9.95526 13.9302 9.87632 14.4884C10.4763 14.5969 11.0053 14.7984 11.4632 15.093C11.9211 15.3876 12.2684 15.7364 12.5053 16.1395C13.3105 15.5969 13.9539 14.8915 14.4355 14.0233C14.9171 13.155 15.1579 12.2016 15.1579 11.1628H18C18 12.3876 17.7632 13.5349 17.2895 14.6047C16.8158 15.6744 16.1724 16.6085 15.3592 17.407C14.5461 18.2054 13.5947 18.8372 12.5053 19.3023C11.4158 19.7674 10.2474 20 9 20Z" fill="white"/>
</svg>
