<svg width="22" height="26" viewBox="0 0 22 26" fill="none" xmlns="http://www.w3.org/2000/svg">
<path d="M2.75 26C1.99375 26 1.34635 25.7454 0.807813 25.2362C0.269271 24.7271 0 24.115 0 23.4V7.8C0 7.085 0.269271 6.47292 0.807813 5.96375C1.34635 5.45458 1.99375 5.2 2.75 5.2H5.5C5.5 3.77 6.03854 2.54583 7.11563 1.5275C8.19271 0.509167 9.4875 0 11 0C12.5125 0 13.8073 0.509167 14.8844 1.5275C15.9615 2.54583 16.5 3.77 16.5 5.2H19.25C20.0063 5.2 20.6536 5.45458 21.1922 5.96375C21.7307 6.47292 22 7.085 22 7.8V23.4C22 24.115 21.7307 24.7271 21.1922 25.2362C20.6536 25.7454 20.0063 26 19.25 26H2.75ZM2.75 23.4H19.25V7.8H16.5V10.4C16.5 10.7683 16.3682 11.0771 16.1047 11.3262C15.8411 11.5754 15.5146 11.7 15.125 11.7C14.7354 11.7 14.4089 11.5754 14.1453 11.3262C13.8818 11.0771 13.75 10.7683 13.75 10.4V7.8H8.25V10.4C8.25 10.7683 8.11823 11.0771 7.85469 11.3262C7.59115 11.5754 7.26458 11.7 6.875 11.7C6.48542 11.7 6.15885 11.5754 5.89531 11.3262C5.63177 11.0771 5.5 10.7683 5.5 10.4V7.8H2.75V23.4ZM8.25 5.2H13.75C13.75 4.485 13.4807 3.87292 12.9422 3.36375C12.4036 2.85458 11.7563 2.6 11 2.6C10.2437 2.6 9.59635 2.85458 9.05781 3.36375C8.51927 3.87292 8.25 4.485 8.25 5.2Z" fill="#454545"/>
</svg>