<svg width="24" height="24" viewBox="0 0 24 24" fill="none" xmlns="http://www.w3.org/2000/svg">
<path fill-rule="evenodd" clip-rule="evenodd" d="M10.6718 2.05574C10.6254 2.08816 10.5488 2.21576 10.5014 2.33926C10.372 2.67625 10.3843 3.05508 10.5389 3.49992C10.6798 3.90534 10.6882 4.06299 10.5813 4.29853C10.4777 4.52703 10.4813 4.69984 10.592 4.80113C10.8217 5.01137 11.0259 4.93288 11.1878 4.57204C11.3659 4.17507 11.3663 3.90112 11.1894 3.32977L11.0435 2.85837L11.1259 2.58704C11.1863 2.38807 11.1985 2.28987 11.1715 2.21881C11.0952 2.01815 10.843 1.93583 10.6718 2.05574ZM12.7474 2.04244C12.5913 2.11803 12.4593 2.48732 12.4593 2.84851C12.4593 3.16071 12.6916 3.93346 12.8174 4.04007C12.9266 4.1326 13.1437 4.1281 13.2405 4.03127C13.3775 3.89428 13.3787 3.77289 13.247 3.38342C13.1104 2.97968 13.0959 2.79048 13.1828 2.54422C13.2658 2.30919 13.257 2.24083 13.1272 2.11103C13.0089 1.99273 12.8931 1.97185 12.7474 2.04244ZM17.1674 2.73377C16.95 2.87038 16.8589 3.04159 16.8589 3.3133C16.8589 3.49941 16.8782 3.58064 16.9437 3.66926L17.0286 3.78403L16.6989 4.11203C16.4134 4.39606 16.3601 4.43368 16.3012 4.39285C16.1126 4.2622 15.8206 4.10898 15.6391 4.04547C15.3491 3.94402 15.2457 3.98853 15.11 4.27319C14.9551 4.59797 14.6947 4.70305 14.4099 4.55577C14.2253 4.46027 14.0806 4.51366 13.9206 4.73625C13.6593 5.10011 13.346 5.19756 12.9107 5.05056C12.6785 4.97207 12.6488 4.97 12.5434 5.02451C12.3947 5.1014 12.3236 5.29154 12.3912 5.43193C12.556 5.7747 13.3298 5.89535 13.8464 5.65883C13.9598 5.60693 14.126 5.49806 14.2159 5.41687C14.3736 5.27441 14.3883 5.2696 14.6414 5.27757C14.8665 5.28469 14.938 5.26858 15.1474 5.16369C15.2815 5.09651 15.443 4.97876 15.5062 4.90203L15.6212 4.76249L15.7903 4.86163C16.0188 4.99557 16.3783 5.37949 16.497 5.61624C16.6865 5.99417 16.7752 6.41868 16.7355 6.757L16.7112 6.96375L13.4649 6.95378L10.2186 6.94377L10.1488 6.65047C9.80916 5.22364 8.65781 3.67418 7.51025 3.09958C7.11856 2.90346 6.86287 2.84617 6.46054 2.86431C5.88731 2.89012 5.48286 3.12219 5.29789 3.5314C5.21701 3.71036 5.20552 3.79272 5.20907 4.16717C5.21236 4.51428 5.23363 4.66531 5.31924 4.94931C5.46139 5.42094 5.69353 5.97086 5.79947 6.08689C5.97792 6.28227 6.35863 6.14563 6.35863 5.8862C6.35863 5.82957 6.29879 5.64714 6.22566 5.48081C5.90565 4.75295 5.78047 4.11543 5.90104 3.82756C5.99133 3.61204 6.15163 3.5422 6.5571 3.54181C6.87332 3.54145 6.91129 3.55088 7.22192 3.70625C7.52257 3.85658 7.92291 4.15102 7.92291 4.22172C7.92291 4.23764 7.82491 4.28155 7.70508 4.31929C7.36775 4.42566 7.00339 4.59969 6.91137 4.69851C6.73452 4.8883 6.87304 5.24261 7.12403 5.24261C7.18132 5.24261 7.3801 5.17453 7.56578 5.09131C7.86179 4.95862 8.33111 4.81243 8.46114 4.81243C8.52453 4.81243 8.82922 5.25133 9.03699 5.64193L9.21415 5.97497L8.82429 6.09855C8.399 6.23335 8.31398 6.30425 8.31398 6.52407C8.31398 6.67859 8.46095 6.84624 8.59575 6.84549C8.6451 6.84522 8.81749 6.80298 8.9788 6.7516C9.42275 6.61019 9.4556 6.60999 9.49302 6.74824C9.5105 6.81276 9.54273 6.99754 9.56463 7.15886C9.59677 7.39561 9.62372 7.46914 9.70443 7.54015L9.80443 7.62814H13.9115H18.0186L18.1329 7.74246C18.2442 7.85379 18.2472 7.86713 18.2472 8.25386C18.2472 8.64059 18.2442 8.65392 18.1329 8.76526L18.0186 8.87957H11.99H5.96153L5.84722 8.76526C5.73589 8.65392 5.73291 8.64059 5.73291 8.25386C5.73291 7.86713 5.73589 7.85379 5.84722 7.74246L5.96153 7.62814H6.82791H7.69429L7.8086 7.51383C7.9576 7.36484 7.95697 7.22605 7.80665 7.07568L7.69038 6.95941L6.74098 6.97115C5.69087 6.98413 5.62224 6.9984 5.36269 7.25792C5.12245 7.49819 5.08765 7.62419 5.08765 8.25386C5.08765 8.73613 5.09899 8.84375 5.1634 8.97355C5.25995 9.16822 5.44426 9.35253 5.63894 9.44909C5.78759 9.52284 5.9446 9.52511 11.6283 9.53501L17.465 9.54514V15.1579C17.465 20.1204 17.4581 20.7873 17.4049 20.9146C17.3239 21.1085 17.2405 21.1957 17.0544 21.2812C16.9053 21.3496 16.669 21.3531 11.9986 21.3539C7.67669 21.3546 7.08219 21.3477 6.95517 21.2946C6.76127 21.2136 6.67406 21.1302 6.58862 20.9441C6.5201 20.795 6.51674 20.5565 6.51592 15.8148L6.51506 10.8419L6.39062 10.7372C6.24748 10.6167 6.0821 10.6248 5.94812 10.7587C5.87053 10.8363 5.86979 10.8863 5.86979 15.9102V20.9832L5.98242 21.227C6.11307 21.5099 6.38436 21.7841 6.66136 21.9133L6.84747 22H11.99H17.1326L17.3187 21.9133C17.5957 21.7841 17.867 21.5099 17.9977 21.227L18.1103 20.9832L18.1207 15.2483L18.1311 9.51346L18.2314 9.48827C18.5028 9.42015 18.7787 9.1313 18.873 8.81657C18.9471 8.56902 18.91 7.72216 18.8167 7.53417C18.6233 7.14435 18.3428 6.98917 17.7973 6.97028L17.406 6.95675L17.4026 6.57874C17.4006 6.36256 17.3709 6.0919 17.3333 5.94654C17.2665 5.68894 17.0673 5.24343 16.9214 5.02557L16.8416 4.90629L17.1634 4.58612L17.4852 4.26599L17.6773 4.36321C17.9053 4.47865 18.0177 4.48343 18.2276 4.38656C18.6003 4.21453 18.7403 3.83613 18.5611 3.48494C18.481 3.32781 18.3127 3.16994 18.2253 3.16994C18.1975 3.16994 18.1339 3.09669 18.0839 3.00721C17.9492 2.76608 17.8199 2.68716 17.5331 2.67101C17.3418 2.66025 17.2628 2.67382 17.1674 2.73377ZM9.26374 11.361C8.87533 11.4823 8.56423 11.7503 8.36662 12.1338C8.2782 12.3055 8.25743 12.4036 8.24437 12.7121C8.22544 13.1576 8.49329 18.5846 8.54925 18.8895C8.62868 19.3224 8.90145 19.6698 9.30664 19.8542C9.49932 19.9418 9.60327 19.9632 9.84104 19.9642C10.0964 19.9652 10.171 19.9482 10.3941 19.8384C10.6944 19.6906 10.9014 19.4782 11.0462 19.1694L11.1492 18.9496V15.7884V12.6271L11.0395 12.5327C10.8961 12.4094 10.7243 12.41 10.6 12.5343L10.504 12.6303L10.5037 15.6531C10.5036 17.7267 10.4901 18.7244 10.4606 18.8305C10.3689 19.161 10.0056 19.369 9.6753 19.2801C9.4694 19.2246 9.27301 19.0313 9.21841 18.8304C9.17821 18.6824 8.89812 13.3756 8.90067 12.8098C8.90161 12.5999 8.92233 12.5 8.98956 12.3813C9.1145 12.1607 9.34723 12.0098 9.61942 11.9728C9.89715 11.9352 10.0112 11.836 10.0112 11.6324C10.0112 11.3419 9.69364 11.2266 9.26374 11.361ZM13.8784 11.3586C13.3389 11.5347 12.9509 11.9745 12.8491 12.5254C12.8228 12.6678 12.8125 13.8282 12.8197 15.847L12.8309 18.9496L12.9339 19.1694C13.0769 19.4744 13.2859 19.6911 13.5683 19.8273C14.0205 20.0453 14.3556 20.0163 14.448 19.7511C14.5276 19.5229 14.3882 19.3466 14.0949 19.3044C13.8709 19.2722 13.6826 19.1505 13.576 18.9691C13.4971 18.8348 13.4955 18.7784 13.485 15.8221C13.4777 13.7974 13.4879 12.7459 13.516 12.6105C13.6652 11.8918 14.6284 11.742 14.9905 12.3813C15.1072 12.5873 15.1068 12.6229 14.9425 15.8015C14.7803 18.9407 14.7824 18.8285 14.883 18.9291C15.054 19.1001 15.3199 19.061 15.4175 18.8505C15.4724 18.732 15.7593 13.2002 15.7368 12.6925C15.7232 12.3846 15.7049 12.3099 15.5904 12.0961C15.3291 11.6076 14.9008 11.3372 14.356 11.3166C14.1648 11.3095 13.9792 11.3258 13.8784 11.3586Z" fill="black"/>
</svg>
