<svg width="20" height="22" viewBox="0 0 20 22" fill="none" xmlns="http://www.w3.org/2000/svg">
<path d="M3.73643 22C3.09714 22 2.55262 21.7805 2.10286 21.3415C1.65333 20.9023 1.42857 20.3705 1.42857 19.7462V2.46832H0V1.0732H5.71429V0H14.2857V1.0732H20V2.46832H18.5714V19.7462C18.5714 20.3884 18.3512 20.9246 17.9107 21.3548C17.4702 21.7849 16.9212 22 16.2636 22H3.73643ZM17.1429 2.46832H2.85714V19.7462C2.85714 19.9966 2.93952 20.2024 3.10429 20.3635C3.26929 20.5244 3.48 20.6049 3.73643 20.6049H16.2636C16.4836 20.6049 16.6851 20.5155 16.8682 20.3367C17.0513 20.1579 17.1429 19.961 17.1429 19.7462V2.46832ZM6.86821 17.8146H8.29679V5.25856H6.86821V17.8146ZM11.7032 17.8146H13.1318V5.25856H11.7032V17.8146Z" fill="#454545"/>
</svg>
